<svg id="Layer_1" data-name="Layer 1" xmlns="http://www.w3.org/2000/svg" width="11in" height="1.8in" viewBox="0 0 792 129.6">
  <g id="Layer_2" data-name="Layer 2">
    <polyline points="-0.7 0 0 129.6 792.7 129.6 793.41 0" fill="#c1d4c7"/>
    <path d="M792.3,128.82c.92-.55,0-45.29,0-47,0-8.27-6-15.56-30.81-19.9-73.35-12.8-121.87-16.68-160.47-14-28.95,2-76,17.17-124.32,19.23-14.49.62-69.25-4.33-82.73-7.25-13.67-3-27.44-5.36-41.68-7.37C296.29,44.61,244,51.46,186,55.11c-30.7,1.93-50.6-.32-95.37-1.4A141.38,141.38,0,0,0,8.26,77.18C0,82.65,0,84.8,0,84.8v44.58" fill="#e7e2cc"/>
    <path d="M792.3,129.64c.92-.52,0-41.86,0-43.42,0-7.64-6-14.38-30.81-18.39C688.14,56,639.62,52.41,601,54.87,572.07,56.7,525,70.73,476.7,72.64c-14.49.57-69.25-4-82.73-6.71-13.67-2.73-27.44-5-41.68-6.81-56-7.32-108.27-1-166.28,2.38-30.7,1.79-50.6-.29-95.37-1.29C56.43,59.45,29.16,69.87,8.26,81.9,0,86.66,0,88.5,0,88.5v40.88" fill="#fff"/>
    <path d="M792.3,131.51c.91-.48,0-39,0-40.46,0-7.13-6-13.42-30.78-17.15-73.29-11-121.77-14.37-160.33-12.08-28.93,1.71-76,14.78-124.21,16.56-14.48.53-69.19-3.73-82.66-6.25-13.65-2.55-27.41-4.62-41.64-6.35C296.73,59,244.51,64.86,186.55,68c-30.68,1.67-50.56-.27-95.29-1.2C57.09,66.09,30.05,76.15,9,87c-9.27,4.77-9,6.49-9,6.49v36.14" fill="#007bc2"/>
  </g>
  <g>
    <path d="M347.15,15.46c0,.31-.14.47-.43.47s-.49-.31-.61-.94L346,13.7a6.15,6.15,0,0,0-.82-2.2A3.56,3.56,0,0,0,342.65,10a7.63,7.63,0,0,0-1.8-.18c-1.13,0-1.81,0-2.05.07V31.62c0,.87.23,1.41.68,1.62a6.5,6.5,0,0,0,2,.22c.29,0,.43.13.43.31s-.19.3-.57.3a3.78,3.78,0,0,1-.51,0c-1.44,0-2.46-.07-3.06-.07-.79,0-1.53,0-2.23.05s-1.58,0-2.66,0c-.56,0-.83-.09-.83-.29s.51-.33,1.55-.36c.74,0,1.22-.15,1.44-.46a3.61,3.61,0,0,0,.18-1.48V9.88a17.89,17.89,0,0,0-4.43.36q-2.26.82-2.67,4.43c-.07.72-.24,1.08-.5,1.08s-.43-.25-.43-.76c0-.26,0-.52,0-.79l.08-.83c.07-1.1.18-2.55.32-4.35h1.62l7.34.1c.87,0,2.21,0,4,0l6-.1q.08,2,.47,6a1,1,0,0,0,0,.27A1.88,1.88,0,0,1,347.15,15.46Z" fill="#231f20"/>
    <path d="M365.3,33.78c0,.17-.36.26-1.08.26h-5c-.53,0-.79-.06-.79-.24s.2-.21.6-.23c.78,0,1.19-.13,1.24-.33a5.6,5.6,0,0,0,.07-1.18V25.47h-6.81v7.42a.64.64,0,0,0,.3.5,4.31,4.31,0,0,0,1.22.14c.26,0,.39.09.39.25s-.24.26-.72.26h-5.58c-.36,0-.54-.09-.54-.26s.35-.26,1.05-.28c.52,0,.81-.17.86-.44V19.6a6,6,0,0,0,0-1.08c0-.19-.24-.29-.64-.29q-1.23,0-1.23-.36t.51-.21h5.68c.41,0,.62.09.62.29s-.32.31-1,.28a1.47,1.47,0,0,0-.76.13c-.1.08-.16.33-.16.74v5.68h6.81V19.9a6.16,6.16,0,0,0-.07-1.28c-.05-.28-.28-.4-.71-.35h-.67c-.31-.05-.46-.15-.46-.31s.25-.3.76-.3h5.22c.57,0,.86.08.86.25s-.16.29-.49.29-.59,0-.81,0-.49.06-.54.18a5.5,5.5,0,0,0-.07,1.15V32q0,1.23.18,1.35a3.15,3.15,0,0,0,1.26.13C365.13,33.5,365.3,33.59,365.3,33.78Z" fill="#231f20"/>
    <path d="M380.6,30.17s0,.17-.06.45a7.24,7.24,0,0,0-.05.75v2.09a2.43,2.43,0,0,0,.11.72l-6-.11-6.88.11c-.5,0-.76-.09-.76-.28s.15-.33.43-.33a3.15,3.15,0,0,0,1.35-.16c.14-.11.2-.5.2-1.17V19.85c0-1-.08-1.5-.25-1.56a5.11,5.11,0,0,0-1.26-.09c-.29,0-.43-.09-.43-.25s.15-.29.47-.29h12.31v.25l0,.53c.05.35.15,1.42.29,3.19a1.8,1.8,0,0,1,0,.43c0,.3-.09.46-.25.46s-.37-.24-.47-.72c-.33-1.83-1-2.89-1.9-3.21a16.77,16.77,0,0,0-3.73-.25H372v6.73h.85a6.2,6.2,0,0,0,2.82-.37c.36-.26.6-.95.72-2.08.07-.67.21-1,.43-1s.36.24.36.72c0,.28,0,.73-.05,1.33S377,24.73,377,25c0,1.56,0,2.62.08,3.2,0,.19,0,.35,0,.47,0,.38-.12.57-.35.57s-.36-.29-.43-.89c-.14-1.3-.38-2.08-.71-2.33a6,6,0,0,0-2.81-.38H372v7.78a39.79,39.79,0,0,0,6.2-.29q1.43-.39,1.68-3.45c0-.36.16-.54.4-.54S380.6,29.51,380.6,30.17Z" fill="#231f20"/>
    <path d="M408.39,15.46c0,.31-.15.47-.43.47s-.5-.31-.62-.94c0-.43-.09-.86-.14-1.29a6.16,6.16,0,0,0-.83-2.2A3.51,3.51,0,0,0,403.89,10a7.72,7.72,0,0,0-1.8-.18c-1.13,0-1.81,0-2,.07V31.62c0,.87.22,1.41.68,1.62a6.45,6.45,0,0,0,2,.22c.28,0,.43.13.43.31s-.19.3-.58.3a3.63,3.63,0,0,1-.5,0c-1.44,0-2.46-.07-3.06-.07-.79,0-1.54,0-2.23.05s-1.59,0-2.67,0c-.55,0-.83-.09-.83-.29s.52-.33,1.55-.36c.75,0,1.23-.15,1.44-.46a3.61,3.61,0,0,0,.18-1.48V9.88a18,18,0,0,0-4.43.36q-2.27.82-2.66,4.43c-.07.72-.24,1.08-.5,1.08s-.44-.25-.44-.76c0-.26,0-.52,0-.79l.07-.83q.1-1.65.33-4.35h1.62l7.34.1c.86,0,2.21,0,4,0l6-.1c0,1.34.2,3.33.47,6a1.48,1.48,0,0,0,0,.27A1,1,0,0,1,408.39,15.46Z" fill="#231f20"/>
    <path d="M416.74,33.82c0,.15-.11.22-.32.22h-6.05c-.41,0-.61-.07-.61-.19s.26-.26.79-.28c.72,0,1.1-.13,1.13-.25a9.91,9.91,0,0,0,.06-1.56V20.08a9.1,9.1,0,0,0-.08-1.65c0-.15-.22-.25-.54-.27H410c-.21,0-.32-.08-.32-.25s.16-.25.47-.25h5.94c.38,0,.57.09.57.29s-.4.22-1.22.25c-.34,0-.54.05-.61.16a2.53,2.53,0,0,0-.11,1V32.92a.45.45,0,0,0,.27.47,5.85,5.85,0,0,0,1.28.18C416.6,33.59,416.74,33.68,416.74,33.82Z" fill="#231f20"/>
    <path d="M435.14,25.85a7.55,7.55,0,0,1-3.24,6.53,10.24,10.24,0,0,1-6,1.66h-7c-.41,0-.61-.12-.61-.35s.14-.29.43-.26h.83c.48,0,.74-.11.79-.4a5.17,5.17,0,0,0,.07-1.25V20.28a9.89,9.89,0,0,0-.07-1.83c-.12-.15-.54-.23-1.26-.25-.43,0-.65-.09-.65-.25s.22-.29.65-.29h4a27.22,27.22,0,0,1,6.7.57,7,7,0,0,1,3.85,2.8A8.23,8.23,0,0,1,435.14,25.85Zm-3.46-.13q0-7.45-6-7.45a5,5,0,0,0-2,.2,2.45,2.45,0,0,0-.19,1.31V32.49c0,.43.1.7.3.79a4.67,4.67,0,0,0,1.56.15Q431.68,33.43,431.68,25.72Z" fill="#231f20"/>
    <path d="M450.58,30.17s0,.17-.05.45a5.36,5.36,0,0,0-.06.75v2.09a2.8,2.8,0,0,0,.11.72l-6-.11-6.87.11c-.51,0-.76-.09-.76-.28s.14-.33.43-.33a3.15,3.15,0,0,0,1.35-.16c.13-.11.2-.5.2-1.17V19.85c0-1-.09-1.5-.26-1.56a5,5,0,0,0-1.26-.09c-.28,0-.43-.09-.43-.25s.16-.29.47-.29h12.31v.25l0,.53c0,.35.14,1.42.29,3.19a2.63,2.63,0,0,1,0,.43c0,.3-.08.46-.25.46s-.37-.24-.46-.72c-.34-1.83-1-2.89-1.9-3.21a16.83,16.83,0,0,0-3.73-.25h-1.83v6.73h.86a6.26,6.26,0,0,0,2.82-.37c.35-.26.59-.95.71-2.08.07-.67.22-1,.43-1s.36.24.36.72c0,.28,0,.73-.05,1.33S447,24.73,447,25c0,1.56,0,2.62.08,3.2,0,.19,0,.35,0,.47,0,.38-.12.57-.35.57s-.36-.29-.43-.89c-.14-1.3-.38-2.08-.71-2.33a6,6,0,0,0-2.8-.38h-.89v7.78a39.69,39.69,0,0,0,6.2-.29c.95-.26,1.52-1.41,1.68-3.45,0-.36.16-.54.4-.54S450.58,29.51,450.58,30.17Z" fill="#231f20"/>
    <path d="M463.36,29.41a4.36,4.36,0,0,1-1.73,3.45,6.34,6.34,0,0,1-4.17,1.43,7.49,7.49,0,0,1-3.78-1.12,1.1,1.1,0,0,0-.29-.07c-.15,0-.23.11-.25.34A3.9,3.9,0,0,1,453,34a.34.34,0,0,1-.36.26.32.32,0,0,1-.36-.36s0-.41.07-1.08.07-1.25.07-1.73V29.28c0-.45.12-.68.36-.68s.42.37.54,1.12c.46,2.64,1.87,4,4.25,4,2,0,3-1,3-3a3.14,3.14,0,0,0-.72-2.15,9.46,9.46,0,0,0-2.8-1.87,14.5,14.5,0,0,1-3.5-2.15,3.66,3.66,0,0,1-1-2.58,4.14,4.14,0,0,1,1.44-3.24,5.28,5.28,0,0,1,3.64-1.27,6.2,6.2,0,0,1,2.91.82.66.66,0,0,0,.29.11c.17,0,.28-.17.33-.52s.19-.52.43-.52a.32.32,0,0,1,.36.36c0,.05,0,.14,0,.29a11.82,11.82,0,0,0-.07,1.47c0,.36,0,1,.11,1.94a1.69,1.69,0,0,1,0,.33c0,.29-.09.43-.28.43s-.38-.21-.47-.64A4.72,4.72,0,0,0,460,19a3.24,3.24,0,0,0-2.32-.94c-1.73,0-2.59.92-2.59,2.76a3,3,0,0,0,.68,2,2.82,2.82,0,0,0,.8.68q.42.25,2.52,1.26a11.58,11.58,0,0,1,3.31,2.2A3.57,3.57,0,0,1,463.36,29.41Z" fill="#231f20"/>
  </g>
  <g>
    <path d="M393.7,51.41a3.56,3.56,0,0,0-.13.91c0,.36.17.54.52.54a1.29,1.29,0,0,0,.76-.24,2.76,2.76,0,0,0,.58-.55,3.76,3.76,0,0,0,.4-.61l.22-.43.27.15a6.34,6.34,0,0,1-.32.59,3.1,3.1,0,0,1-.54.68,3.48,3.48,0,0,1-.78.57,2.12,2.12,0,0,1-1,.24q-1.38,0-1.38-1.26a3.6,3.6,0,0,1,.06-.51,3.85,3.85,0,0,1,.17-.67h0c-.2.24-.42.5-.68.79a5.9,5.9,0,0,1-.85.8,4.31,4.31,0,0,1-1,.61,3.15,3.15,0,0,1-1.26.24,2.29,2.29,0,0,1-.85-.16,1.9,1.9,0,0,1-.72-.48,2.27,2.27,0,0,1-.5-.83,3.86,3.86,0,0,1-.17-1.2,4.57,4.57,0,0,1,.33-1.68,8.57,8.57,0,0,1,.87-1.6,8.77,8.77,0,0,1,1.24-1.42,12,12,0,0,1,1.43-1.13,6.86,6.86,0,0,1,1.43-.76,3.53,3.53,0,0,1,1.25-.27,1.68,1.68,0,0,1,1.07.35,1.18,1.18,0,0,1,.44,1h0l.36-1h1.47L394,50.36C393.9,50.73,393.8,51.08,393.7,51.41Zm.49-5.62a1.86,1.86,0,0,0,.07-.49,2.17,2.17,0,0,0-.05-.41,1.28,1.28,0,0,0-.19-.41,1.16,1.16,0,0,0-1-.46,2.62,2.62,0,0,0-1.35.39,5.34,5.34,0,0,0-1.24,1,8.38,8.38,0,0,0-1.06,1.44,13.17,13.17,0,0,0-.83,1.63,11.71,11.71,0,0,0-.54,1.61,6.15,6.15,0,0,0-.18,1.37,2,2,0,0,0,.26,1.09A.94.94,0,0,0,389,53a2.41,2.41,0,0,0,1.24-.38,5.85,5.85,0,0,0,1.15-.9,9.47,9.47,0,0,0,.91-1.05,3.92,3.92,0,0,0,.48-.82l1.11-3.09Q394.11,46.08,394.19,45.79Z" fill="#231f20"/>
    <path d="M402.83,41.94,402.07,44h2.29l-.08.29H402L399.6,51l-.21.65a2.29,2.29,0,0,0-.11.67.76.76,0,0,0,.16.51A.63.63,0,0,0,400,53a1.31,1.31,0,0,0,.72-.23,4.45,4.45,0,0,0,.61-.54,4.31,4.31,0,0,0,.46-.62c.12-.21.21-.38.27-.5l.25.1a5.47,5.47,0,0,1-.27.52,3.74,3.74,0,0,1-.5.69,3,3,0,0,1-.79.6,2.36,2.36,0,0,1-1.13.25,1.62,1.62,0,0,1-1.19-.39,1.24,1.24,0,0,1-.4-.93,3.31,3.31,0,0,1,.16-1c.1-.36.21-.68.32-1l2.06-5.72h-1.89l.08-.29h1.89l.76-2.06Z" fill="#231f20"/>
  </g>
  <g>
    <path d="M146.46,103.36c0-10.85,5.43-20.64,15.65-20.64,5.28,0,7.11,3.07,8.5,3.07.53,0,1-.48,1.1-2.5h2v13.3h-2c-.15-6.15-3.6-11.52-7.59-11.52-4.61,0-5.23,7.68-5.23,18.29,0,12.62,1.29,17.57,5,17.57,4.18,0,8.11-6.24,8.3-13.88h2.26c-.29,6.24-2.3,16.13-12.62,16.13C152.13,123.18,146.46,114.45,146.46,103.36Zm10.37.24v-1.25h-8.3a6.84,6.84,0,0,0-.05,1v.24Zm0-2.5a10.53,10.53,0,0,1,0-1.25h-8.21l-.14,1.25Zm0,5a9.88,9.88,0,0,0,0-1.24h-8.3c0,.38.05.81.09,1.24Zm.05,2.45a10,10,0,0,1-.05-1.25h-8.16c.1.44.14.87.24,1.25Zm-.05-9.94a10.29,10.29,0,0,0,.05-1.24h-7.87l-.24,1.24Zm.19,12.44c0-.39,0-.82-.09-1.25H149.2c.1.43.24.86.34,1.25Zm0-14.88a9.6,9.6,0,0,1,.1-1.25h-7.39c-.15.38-.24.81-.39,1.25Zm.29,17.37-.14-1.24H150c.19.43.33.86.53,1.24Zm-.05-19.87a9.72,9.72,0,0,1,.15-1.25h-6.63l-.57,1.25Zm.49,22.37a9.21,9.21,0,0,1-.25-1.25h-6.33c.29.43.53.87.81,1.25Zm-.2-24.87a10.9,10.9,0,0,1,.24-1.24h-5.57c-.28.38-.52.81-.81,1.24Zm.87,27.37a12.78,12.78,0,0,1-.39-1.25h-5c.43.43.87.86,1.3,1.25Zm-.34-29.86.43-1.25h-3.93a16,16,0,0,0-1.35,1.25Zm.86,31.06h-2.83a10.48,10.48,0,0,0,3.6,1.24A5.85,5.85,0,0,1,158.94,119.73Zm.1-33.56a11.7,11.7,0,0,1,.82-1.25,13,13,0,0,0-3.51,1.25Zm12.82.82a1.88,1.88,0,0,1-1.11.33h-.14a12.17,12.17,0,0,1,1.25,2.12Z" fill="#fff"/>
    <path d="M177.86,120.45h1.43c2,0,2.41-.39,2.41-2.4V87.76c0-2-.39-2.4-2.41-2.4h-1.43v-2H196.1v2h-1.2c-2,0-2.4.38-2.4,2.4v13.68h8.69V87.76c0-2-.39-2.4-2.4-2.4h-1.21v-2h18.25v2h-1.44c-2,0-2.4.38-2.4,2.4v30.29c0,2,.38,2.4,2.4,2.4h1.44v2H197.58v-2h1.21c2,0,2.4-.39,2.4-2.4v-14.6H192.5v14.6c0,2,.38,2.4,2.4,2.4h1.2v2H177.86ZM190.58,86.6a4.13,4.13,0,0,1,.28-1.24h-7.53a4.06,4.06,0,0,1,.33,1.24Zm.28,33.85a4.68,4.68,0,0,1-.28-1.25h-6.92a4.67,4.67,0,0,1-.33,1.25ZM190.48,89V87.76h-6.77V89Zm0,2.4V90.16h-6.77V91.4Zm0,2.45V92.6h-6.77v1.25Zm0,2.4V95h-6.77v1.24Zm0,2.45V97.45h-6.77V98.7Zm0,2.4V99.85h-6.77v1.25Zm0,2.4v-1.25h-6.77v1.25Zm0,2.45V104.7h-6.77V106Zm0,2.4V107.1h-6.77v1.25Zm0,2.4V109.5h-6.77v1.25Zm0,2.45V112h-6.77v1.25Zm0,2.4v-1.25h-6.77v1.25Zm0,2.4v-1.25h-6.77V118Zm19.59-31.4a4.13,4.13,0,0,1,.28-1.24h-7.53a4.06,4.06,0,0,1,.33,1.24Zm.28,33.85a4.68,4.68,0,0,1-.28-1.25h-6.92a4.67,4.67,0,0,1-.33,1.25ZM210,89V87.76H203.2V89Zm0,2.4V90.16H203.2V91.4Zm0,2.45V92.6H203.2v1.25Zm0,2.4V95H203.2v1.24Zm0,2.45V97.45H203.2V98.7Zm0,2.4V99.85H203.2v1.25Zm0,2.4v-1.25H203.2v1.25Zm0,2.45V104.7H203.2V106Zm0,2.4V107.1H203.2v1.25Zm0,2.4V109.5H203.2v1.25Zm0,2.45V112H203.2v1.25Zm0,2.4v-1.25H203.2v1.25Zm0,2.4v-1.25H203.2V118Z" fill="#fff"/>
    <path d="M219.47,120.45h1.44c2,0,2.4-.39,2.4-2.4V87.76c0-2-.38-2.4-2.4-2.4h-1.44v-2h29.24V96.21h-2.17c0-7.06-5.32-10.85-10.94-10.95-.48,0-1.49,0-1.49.38v15.7c3.22,0,6-3.5,6-8.35h2.16V111.9h-2.16c0-5.61-2.78-8.54-6-8.54l-.05,14.69c0,1.92.39,2.64,2.16,2.64,5.81,0,10.81-7.78,11.09-13.83h2.16l-.48,15.6H219.47ZM232.1,86.6V85.36h-7.16a4.11,4.11,0,0,1,.29,1.24Zm.28,33.85a4.68,4.68,0,0,1-.28-1.25h-6.87a4.26,4.26,0,0,1-.29,1.25ZM232.1,89V87.76h-6.77V89Zm0,2.45V90.2h-6.77v1.25Zm0,2.4V92.6h-6.77v1.25Zm0,2.4V95h-6.77v1.24Zm0,2.45V97.45h-6.77V98.7Zm0,2.4V99.85h-6.77v1.25Zm0,2.4v-1.25h-6.77v1.25Zm0,2.45V104.7h-6.77V106Zm0,2.4V107.1h-6.77v1.25Zm0,2.45,0-1.25h-6.77v1.25Zm0,2.4V112h-6.72v1.25Zm0,2.4v-1.25h-6.72v1.25Zm0,2.45V116.8h-6.72v1.25Zm8.21-16.37V99.52a6.52,6.52,0,0,1-2.4,2.16Zm0,1.29h-2.4a6.46,6.46,0,0,1,2.4,2.07ZM247,120.45l0-1.25h-3.6c-.48.43-1,.86-1.44,1.25Zm-.34-34v-1H243a14.46,14.46,0,0,1,1.39,1Zm.38,31.73.05-1.25h-1.68a7.48,7.48,0,0,1-1,1.25Zm-.38-30.67h-1.3a13.22,13.22,0,0,1,1.3,1.87Zm.48,28.37.05-1.73a17.22,17.22,0,0,1-1,1.73Z" fill="#fff"/>
    <path d="M254.41,120.3l17.14-34.94h-5.76c-5.47,0-8.21,10.8-8.21,14.11h-2l0-16.13h27.55l-.19,2-16,35.09,5.13,0c5.76,0,9.51-8.93,10-14h2l-.33,15.93H254.37Zm10.33.15.57-1.25h-8.06l-.63,1.25ZM260.13,86.6a9.13,9.13,0,0,1,1.15-1.24h-3.79V86.6ZM258.59,89c.24-.43.48-.86.72-1.24h-1.82V89Zm-.34,1.16h-.76V91.4ZM265.79,118l.58-1.25h-8l-.63,1.25Zm1.11-2.4.57-1.25H259.6L259,115.6Zm1.1-2.4.58-1.25H260.8l-.63,1.25Zm1.1-2.45.58-1.25H262l-.62,1.25Zm1.11-2.4.57-1.25h-7.63l-.62,1.25Zm1.1-2.4.58-1.25h-7.54l-.62,1.25Zm1.11-2.45.57-1.25h-7.44l-.62,1.25Zm1.1-2.4.58-1.25h-7.4l-.62,1.25Zm1.1-2.4.58-1.25h-7.3l-.62,1.25Zm1.11-2.45L276.3,95h-7.2l-.62,1.24Zm1.1-2.4.53-1.25h-7.1l-.63,1.25Zm1.06-2.45.57-1.24h-7l-.63,1.24ZM279,89l.58-1.24h-7L272,89Zm1.06-2.4.57-1.24h-6.86l-.63,1.24Zm1.68,33.85.05-1.25h-3.17c-.44.43-.87.86-1.35,1.25Zm.05-2.45,0-1.25h-1.29a14.27,14.27,0,0,1-.91,1.25Zm.09-2.4v-1.3a12.39,12.39,0,0,1-.82,1.3Z" fill="#fff"/>
    <path d="M301.89,120.45h1.44c2,0,2.4-.39,2.4-2.4l.09-30.77c-.05-1.64-.53-1.92-2.4-1.92H302v-2h20c7.68,0,11.33,3.84,11.33,9.6s-3.75,8.64-7.35,9.07v.2c3.41,0,8.36,2.64,8.36,9.64,0,5.86-3.46,10.61-10.61,10.61H301.89Zm12.24,0V119.2h-6.48a4.6,4.6,0,0,1-.29,1.25Zm0-33.85V85.36h-6.68a4.5,4.5,0,0,1,.34,1.24Zm0,24.2v-1.25h-6.39v1.25Zm0,2.4V112h-6.39v1.25Zm0,2.4v-1.25h-6.39v1.25Zm0,2.45V116.8h-6.39v1.25Zm0-21.8V95h-6.34v1.24Zm0,2.45V97.45h-6.34V98.7Zm0,2.4V99.85h-6.34v1.25Zm0,2.4v-1.25h-6.34v1.25Zm0,2.45V104.7h-6.34V106Zm0,2.4V107.1h-6.34v1.25Zm0-19.35V87.76h-6.29V89Zm0,2.45V90.2h-6.29v1.25Zm0,2.4V92.6h-6.29v1.25Zm8.59-.57c0-5-1.25-8.07-4.9-8.07a9.21,9.21,0,0,0-1.68.15v16a18.42,18.42,0,0,0,1.92.14C321.47,101.53,322.72,98.32,322.72,93.28Zm-.14,18.57c0-5.13-1.25-8.68-4.37-8.68a9.82,9.82,0,0,0-2.07.14v17.14c.34,0,1.68.09,2.07.09C321.33,120.54,322.58,117,322.58,111.85Zm6,7.49H323.2a6.84,6.84,0,0,1-.77,1.3A11.42,11.42,0,0,0,328.58,119.34Zm-.34-15a11.93,11.93,0,0,0-5.76-1.3,5.58,5.58,0,0,1,.77,1.3Zm-1.06-4.13h-3.79a4.61,4.61,0,0,1-.77,1.2A9.33,9.33,0,0,0,327.18,100.24Zm.92-13.59a9.87,9.87,0,0,0-5.24-1.29q.36.57.72,1.29ZM330,118.29a6.38,6.38,0,0,0,1-1.25h-7c-.15.43-.24.86-.39,1.25Zm.91-11.62a7,7,0,0,0-1.11-1.25h-6.14c.14.39.24.82.38,1.25ZM328.86,99a4.79,4.79,0,0,0,1-1.25H324.3A9.52,9.52,0,0,1,324,99Zm1.59-9.89a14.27,14.27,0,0,0-.91-1.25H324a9.52,9.52,0,0,1,.33,1.25ZM332,109a8.51,8.51,0,0,0-.48-1.25h-7.24l.19,1.25Zm-.38,6.91a9,9,0,0,0,.43-1.24h-7.58l-.19,1.24Zm-.38-24.33a5.44,5.44,0,0,0-.29-1.25h-6.39l.15,1.25Zm-.68,4.94a8.1,8.1,0,0,0,.48-1.25h-6.33l-.15,1.25Zm1.78,14.79a9.6,9.6,0,0,0-.1-1.25h-7.68l0,1.25Zm-.1,2.3a9.74,9.74,0,0,0,.1-1.25h-7.73l0,1.25Zm-1-19.58a9.4,9.4,0,0,0,.05-1.21v0h-6.57v1.25Z" fill="#fff"/>
    <path d="M341,112.77v-25c0-2-.39-2.4-2.4-2.4h-1.44v-2h18.14v2h-1.2c-2,0-2.4.38-2.4,2.4v26c0,4,2.11,5.9,5,5.9s5.08-1.92,5.08-6.38V87.76c0-2-.38-2.4-2.4-2.4h-.72v-2h8.84v2h-1c-2,0-2.4.38-2.4,2.4v25.49c0,6.14-3.51,9.74-11.57,9.74C343.65,123,341,118.09,341,112.77Zm8.78-26.21a4.14,4.14,0,0,1,.29-1.2h-7.44a4.07,4.07,0,0,1,.34,1.2ZM349.65,89V87.76H343V89Zm0,2.45V90.2H343v1.25Zm0,2.5V92.7H343V94Zm0,2.45V95.15H343V96.4Zm0,2.44V97.6H343v1.24Zm0,2.45v-1.24H343v1.24Zm0,2.45v-1.25H343v1.25Zm0,2.45v-1.25H343v1.25Zm0,2.45v-1.25H343v1.25Zm0,2.49v-1.24H343v1.24Zm0,2.45v-1.25H343v.44a4.69,4.69,0,0,0,0,.81Zm.24,2.45a9.33,9.33,0,0,1-.2-1.25h-6.57a9.13,9.13,0,0,0,.33,1.25Zm1,2.45a10.44,10.44,0,0,1-.63-1.25H344a6.36,6.36,0,0,0,.91,1.25Zm2.64,2.45a5.65,5.65,0,0,1-1.73-1.25h-5.33a11.27,11.27,0,0,0,5.28,1.25Zm10.13-35.62h-1.35a6.84,6.84,0,0,1,.67,1.15A7.69,7.69,0,0,1,363.62,85.31Z" fill="#fff"/>
    <path d="M390.35,112.53c-.82-5.67-1.78-9.41-5.38-9.41-.43,0-.52,0-.62,0v14.88c0,2,.38,2.4,2.4,2.4h1.44v2H370v-2h1.44c2,0,2.4-.39,2.4-2.4V87.76c0-2-.39-2.4-2.4-2.4H370v-2h17.66c9.46,0,14.4,2.74,14.4,9.41,0,5.57-3.4,9.26-8.4,9.84v.19c7.93,1.39,8.69,9.89,8.89,12.1.09.91-.05,2.45,1,2.45s1.58-1.59,1.77-4.13l2,.33c-.19,5.62-2.93,9.56-8.36,9.56C391.93,123.09,390.93,116.56,390.35,112.53Zm-8-25.93V85.36h-6.91a7,7,0,0,1,.34,1.24Zm.39,33.85a4.68,4.68,0,0,1-.29-1.25h-6.67a9,9,0,0,1-.34,1.25ZM382.33,89V87.76H375.8V89Zm0,2.45V90.2H375.8v1.25Zm0,2.4V92.6H375.8v1.25Zm0,2.4V95H375.8v1.24Zm0,2.45V97.45H375.8V98.7Zm0,2.4V99.85H375.8v1.25Zm0,2.4v-1.25H375.8v1.25Zm0,2.45V104.7H375.8V106Zm0,2.4V107.1H375.8v1.25Zm0,2.45v-1.25H375.8v1.25Zm0,2.4V112H375.8v1.25Zm0,2.4v-1.25H375.8v1.25Zm0,2.45V116.8H375.8v1.25Zm8.55-24.73c0-5.32-1.68-8.3-5.38-8.3a4.47,4.47,0,0,0-1.15.14v16.18a2.91,2.91,0,0,0,1.2.19C389.29,101.53,390.88,98.51,390.88,93.32Zm3.69,11.14a10.38,10.38,0,0,0-5-1.15,5.27,5.27,0,0,1,.72,1.15Zm1.16-4.22h-4.37a6.8,6.8,0,0,1-1,1.29A10,10,0,0,0,395.73,100.24Zm.86-13.49a15.49,15.49,0,0,0-5.95-1.35,9.28,9.28,0,0,1,.81,1.35Zm.86,20.06a9.68,9.68,0,0,0-1.24-1.24h-5.43a9.12,9.12,0,0,1,.48,1.24Zm1.49,2.4a9.78,9.78,0,0,0-.67-1.24h-6.72l.29,1.24ZM397.36,99a7,7,0,0,0,1.1-1.25h-6.14L391.89,99Zm1.73-9.84a5.77,5.77,0,0,0-.92-1.25H392a8.72,8.72,0,0,1,.39,1.25Zm.76,22.37a8.72,8.72,0,0,0-.38-1.25h-7.39l.19,1.25Zm.53,2.35-.24-1.25h-7.73l.2,1.25Zm-1.2-17.33a5.84,5.84,0,0,0,.48-1.25H392.8c-.05.43-.1.82-.19,1.25Zm.72-5a5,5,0,0,0-.29-1.24h-7a9.18,9.18,0,0,1,.2,1.24Zm.72,24.63a5.83,5.83,0,0,1-.14-1.2v0H392.8a9.13,9.13,0,0,0,.33,1.25Zm-.72-22.13a9.71,9.71,0,0,0,.1-1.2v0h-7.11v.48a5.3,5.3,0,0,1,0,.77Zm1.68,24.53a3.34,3.34,0,0,1-.67-1.25h-7.34a9.92,9.92,0,0,0,.67,1.25Zm1.3,1.1H395.1a5.14,5.14,0,0,0,3.6,1.3A6.14,6.14,0,0,0,402.88,119.77Z" fill="#fff"/>
    <path d="M409.36,120.45h1.44c2,0,2.4-.39,2.4-2.4V87.76c0-2-.39-2.4-2.4-2.4h-1.44v-2h18.48v2H426.4c-2,0-2.4.38-2.4,2.4v29.38c0,2.63.48,3.45,2,3.45,4.56,0,9.31-8,9.79-14h2l-.38,15.89h-28ZM422.08,86.6a4.11,4.11,0,0,1,.29-1.24h-7.54a7,7,0,0,1,.34,1.24Zm.43,33.85a5.76,5.76,0,0,1-.34-1.25h-7a9,9,0,0,1-.34,1.25ZM422,89V87.76h-6.77V89Zm0,2.45V90.2h-6.77v1.25Zm0,2.4V92.6h-6.77v1.25Zm0,2.4V95h-6.77v1.24Zm0,2.45V97.45h-6.77V98.7Zm0,2.4V99.85h-6.77v1.25Zm0,2.4v-1.25h-6.77v1.25Zm0,2.45V104.7h-6.77V106Zm0,2.4V107.1h-6.77v1.25Zm0,2.45v-1.25h-6.77v1.25Zm0,2.4V112h-6.77v1.25Zm0,2.4v-1.25h-6.77v1.25Zm0,2.45,0-.91v-.34h-6.77v1.25Zm13.39,2.4.05-1.25h-3.12a17.68,17.68,0,0,1-1.34,1.25Zm.1-2.36v-1.24h-1.35c-.28.43-.57.81-.91,1.24Zm.05-2.3-.05-1.44a13.76,13.76,0,0,1-.87,1.44Z" fill="#fff"/>
    <path d="M440.46,120.45h1.44c1.92,0,2.4-.39,2.4-2.07V87.76c0-2-.43-2.4-2.45-2.4h-1.44v-2h18.48v2h-1.44c-2,0-2.4.38-2.4,2.4v30.29c0,2,.39,2.4,2.4,2.4h1.44v2H440.46ZM453.13,86.6a4.44,4.44,0,0,1,.29-1.24h-7.53a4.37,4.37,0,0,1,.33,1.24Zm.29,33.85a5.09,5.09,0,0,1-.29-1.25h-6.91a5.08,5.08,0,0,1-.33,1.25ZM453,89V87.76h-6.77V89Zm0,2.4V90.16h-6.77V91.4Zm0,2.45V92.6h-6.77v1.25Zm0,2.4V95h-6.77v1.24Zm0,2.45V97.45h-6.77V98.7Zm0,2.4V99.85h-6.77v1.25Zm0,2.4v-1.25h-6.77v1.25Zm0,2.45V104.7h-6.77V106Zm0,2.4V107.1h-6.77v1.25Zm0,2.4V109.5h-6.77v1.25Zm0,2.45V112h-6.77v1.25Zm0,2.4v-1.25h-6.77v1.25Zm0,2.4v-1.25h-6.77V118Z" fill="#fff"/>
    <path d="M462.54,120.45h1c2,0,2.49-.39,2.49-2.4V87.18c0-1.54-.52-1.82-2.35-1.82h-1v-2h14.45l12,23.67V87.76c0-2.12-.39-2.4-2.4-2.4h-1v-2h9v2h-1c-1.73,0-2.3.28-2.3,2.35l-.29,34.75h-7.68L468.11,90.88l.29,27.17c.05,2,.53,2.4,2.4,2.4H472v2h-9.46Zm5.23,0a7.69,7.69,0,0,1-.67-1.16,6.92,6.92,0,0,1-.67,1.16Zm8.84-33.9L476,85.36h-8.35a4.28,4.28,0,0,1,.34.57l.33.67Zm1.2,2.4-.63-1.24h-8.35l.62,1.24Zm1.24,2.4-.62-1.24H470l.62,1.24Zm1.2,2.45-.62-1.25h-8.45l.63,1.25Zm1.25,2.4L480.83,95h-8.45l.63,1.24Zm1.2,2.45-.62-1.25h-8.5l.63,1.25Zm1.2,2.4-.62-1.25h-8.55l.63,1.25Zm1.25,2.4-.62-1.25h-8.6l.63,1.25Zm1.2,2.45-.62-1.25h-8.64l.62,1.25Zm1.25,2.4L487,107.1h-8.68l.62,1.25Zm1.2,2.4-.63-1.25h-8.68l.62,1.25Zm.48,2.45V112h-8.64l.62,1.25Zm0,2.4.05-1.25h-7.49l.62,1.25Zm0,2.4v-1.25H483l.63,1.25Zm0,2.45V119.2h-5.09l.62,1.25ZM491,85.26h-1.34a7.6,7.6,0,0,1,.67,1.15A6.84,6.84,0,0,1,491,85.26Z" fill="#fff"/>
    <path d="M497.1,102.78c0-14,7.87-20,16.61-20,5.71,0,8.26,3,9.65,3,1,0,1.2-.86,1.34-2.59h2v14.4h-2c-.77-8.31-4.85-12.53-9.6-12.53-4.56,0-6.33,6.29-6.33,17.28,0,10.71.09,18.77,6,18.77a9.59,9.59,0,0,0,1.58-.19V108.06a1.05,1.05,0,0,0-1-1.15l-2.49-.29v-1.77h17.37v1.82l-2.4.24a1,1,0,0,0-1,1.15V119.2a11.41,11.41,0,0,1,3.08,1.34l-.15,2.21a8.75,8.75,0,0,0-4.66-1.29c-3.5,0-7.48,1.77-12.09,1.77C503.1,123.23,497.1,115,497.1,102.78Zm9.65-1.77V99.76h-7.54a12.24,12.24,0,0,1-.09,1.25Zm0,2.44v-1.24h-7.63v1.24Zm0,2.45v-1.25h-7.59c0,.44,0,.82.1,1.25Zm.05-7.3c0-.43,0-.86.09-1.24H499.6c-.1.38-.15.81-.24,1.24Zm0,9.75c0-.43-.05-.86-.05-1.25h-7.39l.24,1.25Zm.14-12.19.14-1.25h-6.91c-.09.38-.24.81-.33,1.25Zm0,14.64c-.05-.43-.05-.87-.1-1.25h-7c.09.38.24.82.33,1.25Zm.19,2.4L507,112h-6.43a9.94,9.94,0,0,0,.52,1.25Zm.1-19.49c0-.43.14-.87.19-1.25h-6.29a10.91,10.91,0,0,0-.53,1.25Zm.29,21.94c0-.39-.15-.82-.19-1.25h-5.67a11.32,11.32,0,0,0,.77,1.25Zm.14-24.39c.1-.43.24-.82.34-1.25h-5.38a11.7,11.7,0,0,0-.82,1.25Zm.58,26.83a9,9,0,0,1-.39-1.24h-4.51a14.63,14.63,0,0,0,1.25,1.24Zm.09-29.28c.15-.43.29-.81.48-1.25H505a18.45,18.45,0,0,0-1.39,1.25Zm.44,30.49h-2.65a16.68,16.68,0,0,0,3.7,1.63A11.87,11.87,0,0,1,508.77,119.3Zm.67-32.89a15.54,15.54,0,0,1,1-1.34,14.12,14.12,0,0,0-3.65,1.34Zm15.41,21.94V108a2.71,2.71,0,0,1,.14-.91h-6.77a2.71,2.71,0,0,1,.15.91v.34Zm0,2.45v-1.25h-6.48v1.25Zm0,2.4V112h-6.48v1.25Zm0,2.45V114.4h-6.48v1.25Zm0,2.44v-1.24h-6.48v1.24Zm0,1.44v-.23h-6.48v1.2A31.09,31.09,0,0,1,524.85,119.53Zm0-32.4a1.84,1.84,0,0,1-1.1.34h-.14a9.76,9.76,0,0,1,1.24,2.11Z" fill="#fff"/>
    <path d="M531.56,120.45h.82a3.37,3.37,0,0,0,3.27-2.36l11.66-35H552l11.52,35.62a2.36,2.36,0,0,0,2.3,1.73h.82v2H548.13v-2H550c1.1,0,1.44-.63,1.44-1.25a2.07,2.07,0,0,0-.1-.58L549,111h-8.88l-2.06,6.62a4.37,4.37,0,0,0-.2,1.06c0,1.1.72,1.73,2.21,1.73h1.44v2h-9.94Zm5.77,0a2.83,2.83,0,0,1-.68-1.49,4.73,4.73,0,0,1-1.29,1.49Zm11-11.48-3.75-12.24L540.78,109Zm4.89-15.36-.38-1.25h-6.53l-.43,1.25Zm.77,2.4-.38-1.25h-7.54l.38,1.25Zm-1.58-4.85L552.06,90h-4.89l-.44,1.25Zm2.35,7.3-.38-1.25h-7.59l.38,1.25Zm-3.12-9.75-.39-1.24H548l-.43,1.24Zm3.94,12.2-.44-1.25H547.6L548,101Zm-4.76-14.6-.38-1.24h-1.73l-.43,1.24Zm5.57,17-.43-1.25h-7.63l.38,1.25Zm.77,2.4-.43-1.25h-7.68l.38,1.25Zm.82,2.44-.44-1.24h-7.73l.39,1.24Zm.72,2.45-.39-1.25h-7.78l.39,1.25Zm.81,2.4-.38-1.25h-7.83l.39,1.25Zm.77,2.45-.38-1.25h-7.88l.39,1.25Zm.82,2.45-.39-1.25h-7.92l.38,1.25Zm1,2.45a9.32,9.32,0,0,1-.53-1.11l-.05-.14h-8.11a5.69,5.69,0,0,1-.29,1.25Z" fill="#fff"/>
    <path d="M574.81,92v26.07c0,2,.39,2.4,2.4,2.4h1.44v2H568.57v-2H570c2,0,2.4-.34,2.45-2.4l.1-30.87c-.1-1.54-.58-1.82-2.4-1.82h-1.44v-2h15.17l6.19,23.71,6-23.71h14.78v2h-1.44c-2,0-2.4.38-2.4,2.4v30.29c0,2,.39,2.4,2.4,2.4h1.44v2H592.67v-2h1.44c2,0,2.4-.39,2.4-2.4V91.5l-8.26,31-5.37.05Zm-.62,28.52a2.9,2.9,0,0,1-.67-1.16,2.5,2.5,0,0,1-.67,1.16Zm8.5-33.9-.34-1.24h-7.2l.34,1.24Zm.57,2.4L583,87.76h-7.2l.34,1.24Zm.63,2.4-.29-1.24h-7.2l.33,1.24Zm.67,2.45-.34-1.25h-7.15l.34,1.25Zm.62,2.4L584.85,95h-7.16l.34,1.24Zm.63,2.45-.34-1.25h-7.15l.33,1.25Zm.67,2.4-.34-1.25H579l.34,1.25Zm.57,2.4-.33-1.25h-7.11l.34,1.25Zm.63,2.45-.29-1.25h-7.15l.33,1.25Zm.67,2.4L588,107.1h-7.1l.34,1.25Zm.62,2.4-.33-1.25h-7.11l.34,1.25Zm-.33,2.45.29-1.25h-6.77l.33,1.25Zm-.63,2.4.34-1.25h-5.52l.34,1.25Zm-.67,2.4.34-1.25h-4.23l.34,1.25Zm-.67,2.45.34-1.25h-2.93l.34,1.25Zm18.77,0a5.09,5.09,0,0,1-.29-1.25h-6.67a4.67,4.67,0,0,1-.34,1.25Zm-.29-33.85a4.44,4.44,0,0,1,.29-1.24h-6.91V86.6Zm-.09,2.4V87.76h-6.53V89Zm0,2.4V90.16h-6.53V91.4Zm0,2.45V92.6h-6.53v1.25Zm0,2.4V95h-6.53v1.24Zm0,2.45V97.45h-6.53V98.7Zm0,2.4V99.85h-6.53v1.25Zm0,2.4v-1.25h-6.53v1.25Zm0,2.45V104.7h-6.53V106Zm0,2.4V107.1h-6.53v1.25Zm0,2.4V109.5h-6.53v1.25Zm0,2.45V112h-6.53v1.25Zm0,2.4v-1.25h-6.53v1.25Zm0,2.4v-1.25h-6.53V118Z" fill="#fff"/>
    <path d="M614.56,120.45H616c2,0,2.4-.39,2.4-2.4V87.76c0-2-.39-2.4-2.4-2.4h-1.44v-2h29.23V96.21h-2.16c0-7.06-5.33-10.85-10.94-10.95-.48,0-1.49,0-1.49.38v15.7c3.21,0,6-3.5,6-8.35h2.16V111.9H635.2c0-5.61-2.79-8.54-6-8.54l-.05,14.69c0,1.92.38,2.64,2.16,2.64,5.81,0,10.8-7.78,11.09-13.83h2.16l-.48,15.6H614.56ZM627.18,86.6V85.36H620a4.44,4.44,0,0,1,.29,1.24Zm.29,33.85a5.09,5.09,0,0,1-.29-1.25h-6.86a4.6,4.6,0,0,1-.29,1.25ZM627.18,89V87.76h-6.77V89Zm0,2.45V90.2h-6.77v1.25Zm0,2.4V92.6h-6.77v1.25Zm0,2.4V95h-6.77v1.24Zm0,2.45V97.45h-6.77V98.7Zm0,2.4V99.85h-6.77v1.25Zm0,2.4v-1.25h-6.77v1.25Zm0,2.45V104.7h-6.77V106Zm0,2.4V107.1h-6.77v1.25Zm0,2.45,0-1.25h-6.77v1.25Zm0,2.4V112h-6.72v1.25Zm0,2.4v-1.25h-6.72v1.25Zm0,2.45V116.8h-6.72v1.25Zm8.21-16.37V99.52a6.45,6.45,0,0,1-2.4,2.16Zm0,1.29h-2.4a6.46,6.46,0,0,1,2.4,2.07Zm6.77,17.48,0-1.25h-3.6c-.48.43-1,.86-1.44,1.25Zm-.33-34v-1h-3.7a14.46,14.46,0,0,1,1.39,1Zm.38,31.73.05-1.25h-1.68a8,8,0,0,1-1,1.25Zm-.38-30.67h-1.3a13.22,13.22,0,0,1,1.3,1.87Zm.47,28.37,0-1.73a15.5,15.5,0,0,1-1,1.73Z" fill="#fff"/>
  </g>
</svg>
