<svg id="Layer_1" data-name="Layer 1" xmlns="http://www.w3.org/2000/svg" width="11in" height="4in" viewBox="0 0 792 288">
  <g id="Layer_2" data-name="Layer 2">
    <polyline points="-0.7 0 0 288 792 288 792.7 0" fill="#c1d4c7"/>
    <path d="M792.3,278c.92-1,0-84.09,0-87.21,0-15.35-6-28.9-30.81-36.94-73.35-23.77-121.87-31-160.47-26-28.95,3.69-76,31.86-124.32,35.7-14.49,1.15-69.25-8.05-82.73-13.47a348.92,348.92,0,0,0-41.68-13.69c-56-14.69-108.27-2-166.28,4.79-30.7,3.59-50.6-.59-95.37-2.59C56.43,137,29.38,158.7,8.26,182.12-1,192.4.3,196.25.3,196.25v8.43L-.7,274" fill="#e7e2cc"/>
    <path d="M792.3,285c.92-1,0-84.09,0-87.21,0-15.35-6-28.9-30.81-36.94-73.35-23.77-121.87-31-160.47-26-28.95,3.69-76,31.86-124.32,35.7-14.49,1.15-69.25-8.05-82.73-13.47a348.92,348.92,0,0,0-41.68-13.69c-56-14.69-108.27-2-166.28,4.79-30.7,3.59-50.6-.59-95.37-2.59C56.43,144,29.38,165.7,8.26,189.12-1,199.4.3,203.25.3,203.25v8.43L-.7,281" fill="#fff"/>
    <path d="M792.3,292c.92-1,0-84.09,0-87.21,0-15.35-6-28.9-30.81-36.94-73.35-23.77-121.87-31-160.47-26-28.95,3.69-76,31.86-124.32,35.7-14.49,1.15-69.25-8.05-82.73-13.47a348.92,348.92,0,0,0-41.68-13.69c-56-14.69-108.27-2-166.28,4.79-30.7,3.59-50.6-.59-95.37-2.59C56.43,151,29.38,172.7,8.26,196.12-1,206.4.3,210.25.3,210.25v8.43L-.7,288" fill="#007bc2"/>
  </g>
  <g>
    <path d="M312.93,47.09q0,.84-.78.84c-.52,0-.89-.56-1.1-1.69-.09-.78-.18-1.56-.26-2.34a11.44,11.44,0,0,0-1.5-4,6.39,6.39,0,0,0-4.48-2.73,14.33,14.33,0,0,0-3.25-.33c-2,.06-3.28.1-3.71.13V76.27c0,1.56.41,2.53,1.24,2.92a11.9,11.9,0,0,0,3.64.4c.52,0,.78.22.78.55s-.35.55-1,.55a6,6,0,0,1-.91-.06c-2.6-.09-4.45-.13-5.53-.13-1.43,0-2.77,0-4,.09s-2.86.1-4.81.1c-1,0-1.49-.17-1.49-.52s.93-.61,2.79-.65c1.34,0,2.21-.28,2.6-.85a6.31,6.31,0,0,0,.33-2.67V37q-6.44.06-8,.65-4.1,1.5-4.81,8c-.13,1.3-.43,2-.91,2s-.78-.46-.78-1.37a13.69,13.69,0,0,1,.07-1.43l.13-1.49q.19-3,.58-7.87h2.93l13.26.2c1.56,0,4,0,7.28,0l10.79-.2c.08,2.43.36,6,.84,10.79a2,2,0,0,0,.07.49A2.47,2.47,0,0,1,312.93,47.09Z" fill="#231f20"/>
    <path d="M345.69,80.17c0,.3-.65.46-1.95.46h-9c-1,0-1.43-.1-1.43-.43s.36-.38,1.08-.42c1.4,0,2.15-.24,2.23-.58a9.16,9.16,0,0,0,.13-2.15V65.16H324.44V78.55a1.13,1.13,0,0,0,.54.91,8,8,0,0,0,2.2.26c.47,0,.7.15.7.45s-.43.46-1.3.46H316.51c-.65,0-1-.16-1-.46s.63-.48,1.89-.52q1.43-.06,1.56-.78V54.56a12.93,12.93,0,0,0-.07-2c0-.35-.43-.52-1.17-.52-1.47,0-2.21-.26-2.21-.65s.3-.39.91-.39h10.27c.74,0,1.11.17,1.11.52s-.58.56-1.73.52a2.58,2.58,0,0,0-1.37.23c-.19.15-.28.59-.28,1.33V63.92h12.28V55.1a9.57,9.57,0,0,0-.13-2.3c-.08-.52-.51-.73-1.27-.64h-1.21c-.56-.1-.83-.28-.83-.56s.45-.55,1.36-.55h9.43c1,0,1.56.15,1.56.46s-.3.52-.88.52-1.07,0-1.46.06c-.57,0-.89.11-1,.33a8.57,8.57,0,0,0-.13,2.08V77q0,2.2.33,2.43a5.72,5.72,0,0,0,2.27.23C345.39,79.65,345.69,79.82,345.69,80.17Z" fill="#231f20"/>
    <path d="M373.32,73.64s0,.32-.1.82a10,10,0,0,0-.1,1.36v3.77a5,5,0,0,0,.2,1.3l-10.85-.2-12.42.2c-.91,0-1.37-.18-1.37-.52s.26-.59.78-.59a5.56,5.56,0,0,0,2.44-.29c.24-.2.36-.9.36-2.11V55c0-1.78-.16-2.72-.46-2.83a9.1,9.1,0,0,0-2.27-.16c-.52,0-.78-.16-.78-.46s.28-.52.84-.52h22.23v.45l.07,1c.08.64.26,2.56.52,5.76a4.3,4.3,0,0,1,.06.77q0,.84-.45.84c-.39,0-.67-.44-.84-1.3q-.92-5-3.43-5.79a29.68,29.68,0,0,0-6.73-.45h-3.3V64.44h1.54c2.75,0,4.45-.23,5.1-.68s1.07-1.7,1.29-3.74c.13-1.21.39-1.82.78-1.82s.65.43.65,1.3c0,.52,0,1.32-.1,2.41s-.1,1.9-.1,2.47c0,2.81.05,4.74.15,5.78,0,.35.05.63.05.85,0,.69-.22,1-.64,1s-.65-.55-.77-1.63c-.26-2.34-.69-3.74-1.29-4.19s-2.28-.68-5.06-.68h-1.6v14q9.51-.07,11.19-.52c1.72-.48,2.74-2.56,3-6.24,0-.65.28-1,.72-1S373.32,72.45,373.32,73.64Z" fill="#231f20"/>
    <path d="M423.5,47.09c0,.56-.26.84-.79.84s-.88-.56-1.1-1.69c-.09-.78-.17-1.56-.26-2.34a11.06,11.06,0,0,0-1.5-4,6.36,6.36,0,0,0-4.48-2.73,14.28,14.28,0,0,0-3.25-.33c-2,.06-3.27.1-3.7.13V76.27c0,1.56.41,2.53,1.23,2.92a12,12,0,0,0,3.64.4c.52,0,.78.22.78.55s-.35.55-1,.55a6,6,0,0,1-.91-.06c-2.6-.09-4.44-.13-5.53-.13-1.42,0-2.77,0-4,.09s-2.85.1-4.81.1c-1,0-1.49-.17-1.49-.52s.93-.61,2.79-.65c1.35,0,2.21-.28,2.6-.85A6.31,6.31,0,0,0,402,76V37q-6.44.06-8,.65-4.1,1.5-4.81,8c-.13,1.3-.43,2-.91,2s-.78-.46-.78-1.37c0-.48,0-1,.07-1.43l.13-1.49q.19-3,.58-7.87h2.93l13.26.2q2.34.06,7.28,0l10.79-.2c.09,2.43.37,6,.85,10.79a2.58,2.58,0,0,0,.06.49A3.26,3.26,0,0,1,423.5,47.09Z" fill="#231f20"/>
    <path d="M438.58,80.24c0,.26-.2.39-.59.39H427.07c-.74,0-1.11-.12-1.11-.34s.48-.47,1.43-.51c1.3-.09,2-.24,2.05-.46a18.59,18.59,0,0,0,.1-2.81V55.43a17.19,17.19,0,0,0-.13-3c-.09-.28-.41-.45-1-.49h-1.95c-.39,0-.58-.15-.58-.45s.28-.46.85-.46h10.72c.69,0,1,.17,1,.52s-.74.41-2.21.46c-.61,0-1,.09-1.11.29a4.53,4.53,0,0,0-.19,1.79v24.5a.81.81,0,0,0,.49.85,10.23,10.23,0,0,0,2.3.32C438.31,79.82,438.58,80,438.58,80.24Z" fill="#231f20"/>
    <path d="M471.79,65.84a13.63,13.63,0,0,1-5.85,11.79q-4.23,3-10.86,3H442.47c-.73,0-1.1-.21-1.1-.63s.26-.52.78-.48h1.49c.87,0,1.35-.19,1.43-.71a9.42,9.42,0,0,0,.13-2.27V55.78a17.69,17.69,0,0,0-.13-3.3c-.21-.26-1-.41-2.27-.45-.78,0-1.17-.16-1.17-.46s.39-.52,1.17-.52h7.28q8.52,0,12.09,1a12.53,12.53,0,0,1,6.95,5A14.79,14.79,0,0,1,471.79,65.84Zm-6.24-.23q0-13.45-10.87-13.45c-2.2,0-3.42.12-3.66.35a4.36,4.36,0,0,0-.36,2.38V77.83c0,.78.19,1.26.55,1.43a9,9,0,0,0,2.82.26Q465.55,79.52,465.55,65.61Z" fill="#231f20"/>
    <path d="M499.67,73.64s0,.32-.09.82a10,10,0,0,0-.1,1.36v3.77a5,5,0,0,0,.19,1.3l-10.84-.2-12.42.2c-.91,0-1.37-.18-1.37-.52s.26-.59.78-.59a5.56,5.56,0,0,0,2.44-.29c.23-.2.35-.9.35-2.11V55c0-1.78-.15-2.72-.45-2.83a9.15,9.15,0,0,0-2.28-.16c-.52,0-.78-.16-.78-.46s.29-.52.85-.52h22.23v.45l.06,1q.13,1,.52,5.76a3.49,3.49,0,0,1,.07.77q0,.84-.45.84c-.39,0-.67-.44-.84-1.3-.61-3.3-1.75-5.23-3.44-5.79a29.5,29.5,0,0,0-6.72-.45h-3.31V64.44h1.55c2.75,0,4.45-.23,5.09-.68s1.08-1.7,1.29-3.74c.13-1.21.39-1.82.78-1.82s.65.43.65,1.3c0,.52,0,1.32-.09,2.41s-.1,1.9-.1,2.47c0,2.81.05,4.74.14,5.78a7.39,7.39,0,0,1,.05.85c0,.69-.21,1-.64,1s-.64-.55-.77-1.63c-.25-2.34-.68-3.74-1.28-4.19s-2.29-.68-5.06-.68h-1.61v14c6.34,0,10.08-.22,11.2-.52,1.72-.48,2.74-2.56,3-6.24,0-.65.28-1,.71-1S499.67,72.45,499.67,73.64Z" fill="#231f20"/>
    <path d="M522.75,72.28a7.81,7.81,0,0,1-3.12,6.21,11.4,11.4,0,0,1-7.54,2.59,13.64,13.64,0,0,1-6.83-2,2.24,2.24,0,0,0-.52-.12c-.26,0-.41.2-.45.61a5.84,5.84,0,0,1-.2,1.07.59.59,0,0,1-.65.46.58.58,0,0,1-.65-.65c0-.09,0-.74.13-2s.13-2.25.13-3.12V72.05c0-.83.22-1.24.65-1.24s.76.67,1,2Q505.91,80,512.35,80c3.64,0,5.46-1.82,5.46-5.44a5.65,5.65,0,0,0-1.3-3.88,17.39,17.39,0,0,0-5.07-3.37q-4.95-2.46-6.31-3.88a6.56,6.56,0,0,1-1.75-4.66,7.49,7.49,0,0,1,2.6-5.86,9.54,9.54,0,0,1,6.56-2.29,11.2,11.2,0,0,1,5.27,1.49,1.11,1.11,0,0,0,.52.2c.3,0,.5-.32.58-.95s.35-.94.78-.94a.57.57,0,0,1,.65.65,4.24,4.24,0,0,1-.06.52,21.54,21.54,0,0,0-.13,2.67c0,.65.06,1.82.19,3.51a2,2,0,0,1,.07.58c0,.52-.18.78-.52.78s-.67-.39-.85-1.16a8.46,8.46,0,0,0-2.37-4.54,5.87,5.87,0,0,0-4.19-1.71q-4.68,0-4.68,5A5.36,5.36,0,0,0,509,60.31a5.45,5.45,0,0,0,1.43,1.23q.78.45,4.55,2.26a20.6,20.6,0,0,1,6,4A6.44,6.44,0,0,1,522.75,72.28Z" fill="#231f20"/>
  </g>
  <g>
    <path d="M390.29,129.46a6.18,6.18,0,0,0-.23,1.54c0,.63.3.94.9.94a2.23,2.23,0,0,0,1.3-.41,5.21,5.21,0,0,0,1-.94,6.91,6.91,0,0,0,.68-1.05l.38-.73.47.25c-.12.26-.3.6-.54,1a5.62,5.62,0,0,1-.94,1.17,6.32,6.32,0,0,1-1.33,1,3.59,3.59,0,0,1-1.77.41q-2.37,0-2.37-2.16a5.29,5.29,0,0,1,.11-.88,6.44,6.44,0,0,1,.28-1.13h-.07c-.33.41-.72.86-1.15,1.35a10.6,10.6,0,0,1-1.46,1.37,8.06,8.06,0,0,1-1.78,1,5.4,5.4,0,0,1-2.16.41,4.06,4.06,0,0,1-1.46-.27,3.4,3.4,0,0,1-1.24-.82,4,4,0,0,1-.85-1.43,6.24,6.24,0,0,1-.3-2,7.77,7.77,0,0,1,.57-2.88,13.89,13.89,0,0,1,1.5-2.75,14.78,14.78,0,0,1,2.12-2.43,20.3,20.3,0,0,1,2.45-1.95,12.61,12.61,0,0,1,2.45-1.29,6.07,6.07,0,0,1,2.14-.47,2.83,2.83,0,0,1,1.84.61,2,2,0,0,1,.75,1.62h.07l.62-1.76h2.52l-3.93,10.91C390.64,128.28,390.45,128.88,390.29,129.46Zm.83-9.63a3.26,3.26,0,0,0,.13-.85,3,3,0,0,0-.09-.7,1.88,1.88,0,0,0-.33-.7,1.82,1.82,0,0,0-.63-.56,2,2,0,0,0-1-.24,4.56,4.56,0,0,0-2.32.67,9.1,9.1,0,0,0-2.13,1.75,15,15,0,0,0-1.81,2.46,21.87,21.87,0,0,0-1.43,2.81,18.79,18.79,0,0,0-.91,2.75,9.92,9.92,0,0,0-.33,2.34,3.51,3.51,0,0,0,.45,1.88,1.63,1.63,0,0,0,1.5.72,4.14,4.14,0,0,0,2.12-.65,10.18,10.18,0,0,0,2-1.55,14.61,14.61,0,0,0,1.55-1.8,6.65,6.65,0,0,0,.83-1.4l1.9-5.3A17,17,0,0,0,391.12,119.83Z" fill="#231f20"/>
    <path d="M405.94,113.22l-1.3,3.53h3.92l-.14.5H404.5l-4.11,11.45c-.12.36-.24.73-.36,1.12a3.78,3.78,0,0,0-.18,1.15,1.28,1.28,0,0,0,.27.86,1.08,1.08,0,0,0,.88.33,2.17,2.17,0,0,0,1.23-.4,5.67,5.67,0,0,0,1-.92,6.77,6.77,0,0,0,.79-1.06,7.44,7.44,0,0,0,.47-.86l.43.18c-.09.19-.25.48-.46.88a6.77,6.77,0,0,1-.87,1.19,5.1,5.1,0,0,1-1.35,1,4,4,0,0,1-1.92.43,2.86,2.86,0,0,1-2.06-.66,2.19,2.19,0,0,1-.68-1.6,5.88,5.88,0,0,1,.27-1.64c.18-.61.37-1.17.56-1.68l3.53-9.79h-3.24l.14-.5h3.24l1.3-3.53Z" fill="#231f20"/>
  </g>
  <g>
    <path d="M21.13,230.57c0-16.27,8.14-31,23.48-31,7.92,0,10.66,4.61,12.74,4.61.8,0,1.44-.72,1.66-3.74h3v19.94h-3c-.22-9.22-5.4-17.28-11.38-17.28-6.91,0-7.85,11.52-7.85,27.43,0,18.94,1.95,26.36,7.56,26.36,6.27,0,12.17-9.36,12.46-20.81h3.38c-.43,9.36-3.45,24.19-18.93,24.19C29.63,260.31,21.13,247.21,21.13,230.57Zm15.56.36v-1.87H24.23a11,11,0,0,0-.07,1.51v.36Zm0-3.74a16.7,16.7,0,0,1,.07-1.87H24.45l-.22,1.87Zm.07,7.49a16,16,0,0,0-.07-1.87H24.23a18.35,18.35,0,0,0,.14,1.87Zm.07,3.67a16.09,16.09,0,0,1-.07-1.87H24.52c.14.65.21,1.29.36,1.87Zm-.07-14.9a16.88,16.88,0,0,0,.07-1.88H25l-.36,1.88Zm.29,18.64c-.07-.57-.07-1.22-.15-1.87H25.24c.14.65.36,1.3.5,1.87ZM37,219.77a15.63,15.63,0,0,1,.14-1.87H26c-.22.58-.36,1.22-.58,1.87Zm.43,26.07L37.19,244H26.39c.29.65.51,1.29.79,1.87ZM37.34,216a15,15,0,0,1,.21-1.87H27.62L26.75,216Zm.72,33.55a12.91,12.91,0,0,1-.36-1.87H28.19c.43.65.79,1.3,1.23,1.87Zm-.29-37.3a13.46,13.46,0,0,1,.36-1.87H29.78c-.44.58-.8,1.23-1.23,1.87Zm1.29,41.05c-.21-.65-.43-1.23-.57-1.87H30.93c.65.64,1.29,1.29,1.94,1.87Zm-.5-44.79.65-1.87H33.3a23.66,23.66,0,0,0-2,1.87Zm1.3,46.59H35.61A15.62,15.62,0,0,0,41,257,9.2,9.2,0,0,1,39.86,255.13ZM40,204.8a17.31,17.31,0,0,1,1.22-1.88A18.8,18.8,0,0,0,36,204.8ZM59.23,206a2.83,2.83,0,0,1-1.66.5h-.22a18,18,0,0,1,1.88,3.17Z" fill="#fff"/>
    <path d="M68.22,256.21h2.16c3,0,3.6-.58,3.6-3.6V207.17c0-3-.57-3.6-3.6-3.6H68.22v-3H95.58v3h-1.8c-3,0-3.6.58-3.6,3.6v20.52h13V207.17c0-3-.58-3.6-3.6-3.6h-1.8v-3h27.36v3H123c-3,0-3.6.58-3.6,3.6v45.44c0,3,.57,3.6,3.6,3.6h2.16v3H97.82v-3h1.8c3,0,3.6-.58,3.6-3.6V230.72h-13v21.89c0,3,.58,3.6,3.6,3.6h1.8v3H68.22ZM87.3,205.44a6.68,6.68,0,0,1,.44-1.87H76.43a6.28,6.28,0,0,1,.5,1.87Zm.44,50.77a7.33,7.33,0,0,1-.44-1.87H76.93a6.92,6.92,0,0,1-.5,1.87ZM87.16,209v-1.87H77V209Zm0,3.6v-1.87H77v1.87Zm0,3.68v-1.88H77v1.88Zm0,3.6V218H77v1.88Zm0,3.67v-1.87H77v1.87Zm0,3.6v-1.87H77v1.87Zm0,3.6v-1.87H77v1.87Zm0,3.67v-1.87H77v1.87Zm0,3.6v-1.87H77v1.87Zm0,3.6v-1.87H77v1.87Zm0,3.67v-1.87H77v1.87Zm0,3.61v-1.88H77v1.88Zm0,3.6v-1.88H77v1.88Zm29.38-47.1a6.36,6.36,0,0,1,.43-1.87H105.66a6.28,6.28,0,0,1,.51,1.87Zm.43,50.77a6.93,6.93,0,0,1-.43-1.87H106.17a6.92,6.92,0,0,1-.51,1.87ZM116.39,209v-1.87H106.24V209Zm0,3.6v-1.87H106.24v1.87Zm0,3.68v-1.88H106.24v1.88Zm0,3.6V218H106.24v1.88Zm0,3.67v-1.87H106.24v1.87Zm0,3.6v-1.87H106.24v1.87Zm0,3.6v-1.87H106.24v1.87Zm0,3.67v-1.87H106.24v1.87Zm0,3.6v-1.87H106.24v1.87Zm0,3.6v-1.87H106.24v1.87Zm0,3.67v-1.87H106.24v1.87Zm0,3.61v-1.88H106.24v1.88Zm0,3.6v-1.88H106.24v1.88Z" fill="#fff"/>
    <path d="M130.65,256.21h2.16c3,0,3.6-.58,3.6-3.6V207.17c0-3-.58-3.6-3.6-3.6h-2.16v-3H174.5v19.29h-3.24c0-10.58-8-16.27-16.42-16.41-.72,0-2.23.07-2.23.57v23.55c4.82,0,9-5.26,9-12.53h3.24v28.37h-3.24c0-8.42-4.18-12.82-9-12.82l-.08,22c0,2.88.58,4,3.24,4,8.72,0,16.21-11.67,16.64-20.74h3.24l-.72,23.4H130.65Zm18.93-50.77v-1.87H138.85a6.68,6.68,0,0,1,.44,1.87Zm.43,50.77a7.33,7.33,0,0,1-.43-1.87H139.29a6.68,6.68,0,0,1-.44,1.87ZM149.58,209v-1.87H139.43V209Zm0,3.68v-1.88H139.43v1.88Zm0,3.6v-1.88H139.43v1.88Zm0,3.6V218H139.43v1.88Zm0,3.67v-1.87H139.43v1.87Zm0,3.6v-1.87H139.43v1.87Zm0,3.6v-1.87H139.43v1.87Zm0,3.67v-1.87H139.43v1.87Zm0,3.6v-1.87H139.43v1.87Zm-.07,3.68.07-1.88H139.43v1.88Zm0,3.59v-1.87H139.43v1.87Zm0,3.61v-1.88H139.43v1.88Zm0,3.67v-1.87H139.43v1.87Zm12.31-24.56v-3.24a9.43,9.43,0,0,1-3.6,3.24Zm0,1.95h-3.6a9.64,9.64,0,0,1,3.6,3.09ZM172,256.21l.07-1.87h-5.4c-.72.64-1.44,1.29-2.16,1.87Zm-.51-51v-1.59h-5.54a23.45,23.45,0,0,1,2.09,1.59Zm.58,47.59.07-1.87H169.6a12.13,12.13,0,0,1-1.51,1.87Zm-.58-46h-1.94a18.66,18.66,0,0,1,1.94,2.81Zm.72,42.56.07-2.6a23.25,23.25,0,0,1-1.51,2.6Z" fill="#fff"/>
    <path d="M183.06,256l25.71-52.42h-8.64c-8.21,0-12.32,16.2-12.32,21.17h-3l-.07-24.19h41.33l-.29,3-24,52.64,7.71.07c8.64,0,14.25-13.39,15-20.95h3l-.5,23.9H183Zm15.48.22.87-1.87h-12.1l-.94,1.87Zm-6.91-50.77a14.79,14.79,0,0,1,1.73-1.87h-5.69v1.87Zm-2.31,3.6c.37-.64.73-1.29,1.08-1.87h-2.73V209Zm-.5,1.73h-1.15v1.87Zm11.31,41.77.86-1.88H189l-.94,1.88Zm1.65-3.6.87-1.88H190.84l-.94,1.88Zm1.66-3.61.86-1.87H192.64l-.94,1.87Zm1.65-3.67.87-1.87H194.37l-.94,1.87Zm1.66-3.6.86-1.87H196.17l-.94,1.87Zm1.66-3.6.86-1.87H198l-.94,1.87Zm1.65-3.67.87-1.87H199.77l-.94,1.87Zm1.66-3.6.86-1.87H201.49l-.93,1.87Zm1.66-3.6.86-1.87h-11l-.93,1.87Zm1.65-3.67.87-1.88H205.09l-.93,1.88Zm1.66-3.6.79-1.88H206.82l-.93,1.88Zm1.58-3.68.87-1.87H208.62l-.93,1.87ZM220,209l.86-1.87H210.42l-.93,1.87Zm1.58-3.6.87-1.87h-10.3l-.93,1.87Zm2.52,50.77.08-1.87h-4.76a25.54,25.54,0,0,1-2,1.87Zm.08-3.67.07-1.88H222.3a18.38,18.38,0,0,1-1.36,1.88Zm.14-3.6V247a18.3,18.3,0,0,1-1.22,1.95Z" fill="#fff"/>
    <path d="M254.27,256.21h2.16c3,0,3.6-.58,3.6-3.6l.14-46.16c-.07-2.45-.79-2.88-3.6-2.88h-2.16v-3h30c11.52,0,17,5.76,17,14.4s-5.62,13-11,13.61v.29c5.12.07,12.53,4,12.53,14.47,0,8.78-5.18,15.91-15.91,15.91H254.27Zm18.36,0v-1.87h-9.72a6.69,6.69,0,0,1-.43,1.87Zm0-50.77v-1.87h-10a6.92,6.92,0,0,1,.5,1.87Zm0,36.3v-1.88h-9.58v1.88Zm0,3.59v-1.87h-9.58v1.87Zm0,3.61v-1.88h-9.58v1.88Zm0,3.67v-1.87h-9.58v1.87Zm0-32.69V218h-9.51v1.88Zm0,3.67v-1.87h-9.51v1.87Zm0,3.6v-1.87h-9.51v1.87Zm0,3.6v-1.87h-9.51v1.87Zm0,3.67v-1.87h-9.51v1.87Zm0,3.6v-1.87h-9.51v1.87Zm0-29v-1.87H263.2V209Zm0,3.68v-1.88H263.2v1.88Zm0,3.6v-1.88H263.2v1.88Zm12.89-.87c0-7.56-1.87-12.09-7.35-12.09a14.69,14.69,0,0,0-2.52.21v24.05a28.62,28.62,0,0,0,2.88.22C283.65,227.84,285.52,223,285.52,215.45Zm-.22,27.87c0-7.71-1.87-13-6.55-13a14.72,14.72,0,0,0-3.1.21v25.71c.51.07,2.52.14,3.1.14C283.43,256.35,285.3,251.1,285.3,243.32Zm9,11.23h-8.06a11,11,0,0,1-1.15,1.95A17.12,17.12,0,0,0,294.3,254.55Zm-.5-22.46a17.93,17.93,0,0,0-8.64-2,8.94,8.94,0,0,1,1.15,2Zm-1.59-6.2h-5.68a6.74,6.74,0,0,1-1.16,1.8A14,14,0,0,0,292.21,225.89Zm1.37-20.37a14.71,14.71,0,0,0-7.85-2q.54.87,1.08,2ZM296.46,253A9.87,9.87,0,0,0,298,251.1H287.46c-.21.64-.36,1.29-.57,1.87Zm1.37-17.43a10.2,10.2,0,0,0-1.66-1.87H287c.21.58.36,1.22.57,1.87ZM294.73,224a7.07,7.07,0,0,0,1.52-1.87h-8.36a12.76,12.76,0,0,1-.5,1.87Zm2.38-14.83a16,16,0,0,0-1.37-1.87h-8.28a14.15,14.15,0,0,1,.51,1.87Zm2.3,29.88a13,13,0,0,0-.72-1.87H287.82l.29,1.87Zm-.57,10.37a14.68,14.68,0,0,0,.65-1.87H288.11l-.29,1.87Zm-.58-36.51a7.61,7.61,0,0,0-.43-1.87h-9.58l.22,1.87Zm-1,7.42a15.45,15.45,0,0,0,.73-1.87h-9.51l-.22,1.87Zm2.67,22.18a13.62,13.62,0,0,0-.15-1.87H288.25l.08,1.87Zm-.15,3.45a13.62,13.62,0,0,0,.15-1.87H288.33l-.08,1.87Zm-1.44-29.38a13,13,0,0,0,.08-1.8v-.07h-9.87v1.87Z" fill="#fff"/>
    <path d="M312.88,244.69V207.17c0-3-.58-3.6-3.6-3.6h-2.16v-3h27.21v3h-1.8c-3,0-3.6.58-3.6,3.6v39c0,6,3.17,8.85,7.49,8.85s7.63-2.88,7.63-9.57V207.17c0-3-.57-3.6-3.6-3.6h-1.08v-3h13.25v3h-1.44c-3,0-3.6.58-3.6,3.6v38.24c0,9.21-5.25,14.61-17.35,14.61C316.91,260,312.88,252.68,312.88,244.69Zm13.17-39.32a6.52,6.52,0,0,1,.43-1.8H315.32a5.8,5.8,0,0,1,.51,1.8Zm-.14,3.67v-1.87h-10V209Zm0,3.68v-1.88h-10v1.88Zm0,3.74v-1.87h-10v1.87Zm0,3.67v-1.87h-10v1.87Zm0,3.68v-1.88h-10v1.88Zm0,3.67v-1.87h-10v1.87Zm0,3.67v-1.87h-10v1.87Zm0,3.67V233h-10v1.87Zm0,3.67v-1.87h-10v1.87Zm0,3.75v-1.87h-10v1.87Zm0,3.67V244h-10v.65a7.55,7.55,0,0,0,.07,1.22Zm.36,3.67a14.66,14.66,0,0,1-.29-1.87h-9.86a12.76,12.76,0,0,0,.5,1.87Zm1.44,3.68a15.7,15.7,0,0,1-.94-1.88h-9.36a9.26,9.26,0,0,0,1.37,1.88Zm4,3.67a8.65,8.65,0,0,1-2.59-1.87h-8a17,17,0,0,0,7.93,1.87Zm15.19-53.43h-2a10.27,10.27,0,0,1,1,1.73A11.08,11.08,0,0,1,346.86,203.5Z" fill="#fff"/>
    <path d="M387,244.33c-1.22-8.5-2.66-14.12-8.06-14.12-.65,0-.79,0-.94.08v22.32c0,3,.58,3.6,3.6,3.6h2.16v3H356.36v-3h2.16c3,0,3.6-.58,3.6-3.6V207.17c0-3-.57-3.6-3.6-3.6h-2.16v-3h26.5c14.19,0,21.6,4.1,21.6,14.11,0,8.35-5.11,13.9-12.6,14.76v.29c11.88,2.09,13,14.83,13.32,18.15.15,1.36-.07,3.67,1.44,3.67s2.38-2.38,2.67-6.2l3,.51c-.29,8.42-4.39,14.33-12.53,14.33C389.34,260.17,387.83,250.38,387,244.33Zm-12-38.89v-1.87H364.57a9.47,9.47,0,0,1,.5,1.87Zm.58,50.77a7.33,7.33,0,0,1-.44-1.87h-10a11,11,0,0,1-.5,1.87ZM374.94,209v-1.87h-9.79V209Zm0,3.68v-1.88h-9.79v1.88Zm0,3.6v-1.88h-9.79v1.88Zm0,3.6V218h-9.79v1.88Zm0,3.67v-1.87h-9.79v1.87Zm0,3.6v-1.87h-9.79v1.87Zm0,3.6v-1.87h-9.79v1.87Zm0,3.67v-1.87h-9.79v1.87Zm0,3.6v-1.87h-9.79v1.87Zm0,3.68v-1.88h-9.79v1.88Zm0,3.59v-1.87h-9.79v1.87Zm0,3.61v-1.88h-9.79v1.88Zm0,3.67v-1.87h-9.79v1.87Zm12.82-37.09c0-8-2.52-12.45-8.07-12.45a6.51,6.51,0,0,0-1.73.21v24.27a4.45,4.45,0,0,0,1.8.29C385.38,227.84,387.76,223.3,387.76,215.52Zm5.54,16.71a15.48,15.48,0,0,0-7.56-1.73,8.14,8.14,0,0,1,1.08,1.73Zm1.73-6.34h-6.55a11.07,11.07,0,0,1-1.52,2A14.9,14.9,0,0,0,395,225.89Zm1.29-20.23a23.35,23.35,0,0,0-8.92-2,14,14,0,0,1,1.22,2Zm1.3,30.1a14.36,14.36,0,0,0-1.87-1.87h-8.14a13,13,0,0,1,.72,1.87Zm2.23,3.6a13.86,13.86,0,0,0-1-1.87H388.76l.44,1.87Zm-2.37-15.27a9.55,9.55,0,0,0,1.65-1.87h-9.21l-.65,1.87Zm2.59-14.76a8.83,8.83,0,0,0-1.37-1.87h-9.29a14.6,14.6,0,0,1,.58,1.87Zm1.15,33.56a14.75,14.75,0,0,0-.57-1.88H389.56l.28,1.88Zm.79,3.53-.36-1.88H390.06l.29,1.88Zm-1.8-26a9.58,9.58,0,0,0,.72-1.87H390.64c-.08.65-.15,1.22-.29,1.87Zm1.08-7.42a7.72,7.72,0,0,0-.43-1.87H390.42a15.24,15.24,0,0,1,.29,1.87Zm1.08,36.94a8.3,8.3,0,0,1-.21-1.8v-.07H390.64a12.76,12.76,0,0,0,.5,1.87Zm-1.08-33.19a13.8,13.8,0,0,0,.15-1.8v-.07H390.78v.72a6.74,6.74,0,0,1-.07,1.15Zm2.52,36.79a5.09,5.09,0,0,1-1-1.87h-11a15.13,15.13,0,0,0,1,1.87Zm1.95,1.66H394.09a7.73,7.73,0,0,0,5.4,1.94A9.21,9.21,0,0,0,405.76,255.2Z" fill="#fff"/>
    <path d="M415.47,256.21h2.16c3,0,3.61-.58,3.61-3.6V207.17c0-3-.58-3.6-3.61-3.6h-2.16v-3H443.2v3H441c-3,0-3.6.58-3.6,3.6v44.07c0,4,.72,5.18,2.95,5.18,6.84,0,14-12,14.69-21h3l-.57,23.83H415.47Zm19.09-50.77a6.36,6.36,0,0,1,.43-1.87H423.68a10.17,10.17,0,0,1,.51,1.87Zm.64,50.77a8.31,8.31,0,0,1-.5-1.87H424.19a12,12,0,0,1-.51,1.87ZM434.41,209v-1.87H424.26V209Zm0,3.68v-1.88H424.26v1.88Zm0,3.6v-1.88H424.26v1.88Zm0,3.6V218H424.26v1.88Zm0,3.67v-1.87H424.26v1.87Zm0,3.6v-1.87H424.26v1.87Zm0,3.6v-1.87H424.26v1.87Zm0,3.67v-1.87H424.26v1.87Zm0,3.6v-1.87H424.26v1.87Zm0,3.68v-1.88H424.26v1.88Zm0,3.59v-1.87H424.26v1.87Zm0,3.61v-1.88H424.26v1.88Zm.07,3.67-.07-1.37v-.5H424.26v1.87Zm20.09,3.6.08-1.87H450c-.65.64-1.3,1.29-2,1.87Zm.15-3.53v-1.87h-2c-.43.65-.86,1.22-1.37,1.87Zm.07-3.46-.07-2.16a21,21,0,0,1-1.3,2.16Z" fill="#fff"/>
    <path d="M462.13,256.21h2.16c2.88,0,3.6-.58,3.6-3.1V207.17c0-3-.65-3.6-3.67-3.6h-2.16v-3h27.72v3h-2.16c-3,0-3.6.58-3.6,3.6v45.44c0,3,.58,3.6,3.6,3.6h2.16v3H462.13Zm19-50.77a6.69,6.69,0,0,1,.43-1.87h-11.3a6.6,6.6,0,0,1,.5,1.87Zm.43,50.77a7.33,7.33,0,0,1-.43-1.87H470.77a7.31,7.31,0,0,1-.5,1.87ZM481,209v-1.87H470.84V209Zm0,3.6v-1.87H470.84v1.87Zm0,3.68v-1.88H470.84v1.88Zm0,3.6V218H470.84v1.88Zm0,3.67v-1.87H470.84v1.87Zm0,3.6v-1.87H470.84v1.87Zm0,3.6v-1.87H470.84v1.87Zm0,3.67v-1.87H470.84v1.87Zm0,3.6v-1.87H470.84v1.87Zm0,3.6v-1.87H470.84v1.87Zm0,3.67v-1.87H470.84v1.87Zm0,3.61v-1.88H470.84v1.88Zm0,3.6v-1.88H470.84v1.88Z" fill="#fff"/>
    <path d="M495.25,256.21h1.51c3,0,3.75-.58,3.75-3.6v-46.3c0-2.31-.8-2.74-3.53-2.74h-1.44v-3h21.67l17.93,35.5V207.17c0-3.17-.57-3.6-3.6-3.6H530.1v-3h13.54v3H542.2c-2.59,0-3.46.43-3.46,3.53l-.43,52.13H526.79L503.6,211.85l.44,40.76c.07,2.95.79,3.6,3.6,3.6h1.8v3H495.25Zm7.85.07a11.08,11.08,0,0,1-1-1.73,10.34,10.34,0,0,1-1,1.73Zm13.25-50.84-.94-1.87H502.88a5.62,5.62,0,0,1,.51.87l.5,1Zm1.8,3.6-.94-1.87H504.68l.94,1.87Zm1.87,3.6-.94-1.87h-12.6l.94,1.87Zm1.8,3.68-.94-1.88H508.21l.94,1.88Zm1.87,3.6-1-1.88H510l.94,1.88Zm1.8,3.67-.93-1.87H511.81l.94,1.87Zm1.8,3.6-.93-1.87H513.54l.94,1.87Zm1.88,3.6-.94-1.87H515.34l.94,1.87Zm1.8,3.67-.94-1.87h-13l.93,1.87Zm1.87,3.6-.94-1.87h-13l.93,1.87Zm1.8,3.6-.94-1.87h-13l.94,1.87Zm.72,3.67v-1.87h-13l.93,1.87Zm0,3.61.07-1.88H524.2l.93,1.88Zm0,3.6v-1.88h-9.43l.93,1.88Zm0,3.67v-1.87h-7.63l.93,1.87Zm2.52-52.78h-2a10.64,10.64,0,0,1,1,1.73A10.64,10.64,0,0,1,537.88,203.43Z" fill="#fff"/>
    <path d="M547.09,229.71c0-21,11.81-30,24.91-30,8.57,0,12.39,4.54,14.48,4.47,1.44,0,1.8-1.3,2-3.89h3v21.6h-3c-1.15-12.46-7.27-18.79-14.4-18.79-6.84,0-9.5,9.43-9.5,25.92,0,16.06.14,28.15,9,28.15a13.91,13.91,0,0,0,2.38-.28V237.63a1.58,1.58,0,0,0-1.52-1.73l-3.74-.43v-2.66h26.07v2.73l-3.61.36a1.57,1.57,0,0,0-1.44,1.73v16.71a17.05,17.05,0,0,1,4.61,2l-.21,3.31a13.24,13.24,0,0,0-7-1.94c-5.25,0-11.23,2.66-18.14,2.66C556.09,260.38,547.09,248.07,547.09,229.71Zm14.47-2.66v-1.88h-11.3a15.8,15.8,0,0,1-.14,1.88Zm0,3.67v-1.87H550.12v1.87Zm0,3.67v-1.87H550.19c.07.65.07,1.22.14,1.87Zm.08-10.94c.07-.65.07-1.3.14-1.88H550.83c-.14.58-.21,1.23-.35,1.88Zm0,14.61c0-.65-.08-1.29-.08-1.87H550.48l.35,1.87Zm.21-18.29.22-1.87H551.7c-.14.58-.36,1.22-.5,1.87Zm0,22c-.07-.65-.07-1.3-.14-1.88H551.2c.14.58.36,1.23.5,1.88Zm.29,3.59-.22-1.87h-9.64a13.12,13.12,0,0,0,.79,1.87Zm.14-29.23c.08-.65.22-1.3.29-1.87h-9.43a13.12,13.12,0,0,0-.79,1.87Zm.44,32.91c-.08-.58-.22-1.23-.29-1.87h-8.5a17.66,17.66,0,0,0,1.15,1.87Zm.21-36.58c.15-.65.36-1.23.51-1.87h-8.07a16.26,16.26,0,0,0-1.22,1.87Zm.87,40.25a13.17,13.17,0,0,1-.58-1.87h-6.77a25.38,25.38,0,0,0,1.87,1.87Zm.14-43.92c.22-.65.43-1.23.72-1.88H558.9a26.66,26.66,0,0,0-2.09,1.88Zm.65,45.72h-4a24.87,24.87,0,0,0,5.54,2.45A18.24,18.24,0,0,1,564.59,254.48Zm1-49.32a22.94,22.94,0,0,1,1.44-2,21.25,21.25,0,0,0-5.48,2Zm23.11,32.9v-.5a4,4,0,0,1,.22-1.37H578.77a4,4,0,0,1,.22,1.37v.5Zm0,3.68v-1.88H579v1.88Zm0,3.59v-1.87H579v1.87Zm0,3.68v-1.87H579V249Zm0,3.67v-1.87H579v1.87Zm0,2.16v-.36H579v1.8A46.64,46.64,0,0,1,588.71,254.84Zm.07-48.6a2.78,2.78,0,0,1-1.65.5h-.22a15,15,0,0,1,1.87,3.17Z" fill="#fff"/>
    <path d="M598.79,256.21H600a5,5,0,0,0,4.9-3.53l17.5-52.49h7l17.28,53.43a3.55,3.55,0,0,0,3.46,2.59h1.22v3H623.63v-3h2.74c1.65,0,2.16-.94,2.16-1.87a3.22,3.22,0,0,0-.15-.87l-3.45-11.38H611.6L608.51,252a6.46,6.46,0,0,0-.29,1.59c0,1.65,1.08,2.59,3.31,2.59h2.16v3h-14.9Zm8.64.07a4.13,4.13,0,0,1-1-2.23,6.93,6.93,0,0,1-1.94,2.23ZM624,239.07l-5.62-18.36-5.76,18.36Zm7.34-23-.57-1.87H621l-.64,1.87Zm1.16,3.6-.58-1.87h-11.3l.57,1.87Zm-2.38-7.27-.58-1.88h-7.34l-.65,1.88Zm3.53,10.94-.58-1.87H621.69l.57,1.87ZM629,208.68l-.58-1.87h-5l-.64,1.87Zm5.9,18.29-.65-1.87H622.84l.57,1.87Zm-7.13-21.89-.57-1.87h-2.59l-.65,1.87Zm8.36,25.57-.65-1.88H624l.58,1.88Zm1.15,3.6-.65-1.88H625.07l.58,1.88Zm1.22,3.67-.65-1.87H626.22l.58,1.87Zm1.08,3.67-.57-1.87H627.3l.58,1.87Zm1.23,3.6-.58-1.87H628.45l.58,1.87Zm1.15,3.67-.58-1.87H629.53l.58,1.87Zm1.22,3.68-.57-1.88H630.69l.57,1.88Zm1.44,3.67a17.83,17.83,0,0,1-.79-1.66l-.07-.21H631.55a8.22,8.22,0,0,1-.43,1.87Z" fill="#fff"/>
    <path d="M663.66,213.51v39.1c0,3,.58,3.6,3.6,3.6h2.16v3H654.3v-3h2.16c2.95,0,3.6-.51,3.67-3.6l.15-46.3c-.15-2.31-.87-2.74-3.61-2.74h-2.16v-3h22.76l9.29,35.57,9.07-35.57h22.18v3h-2.16c-3,0-3.6.58-3.6,3.6v45.44c0,3,.57,3.6,3.6,3.6h2.16v3H690.45v-3h2.16c3,0,3.6-.58,3.6-3.6V212.79l-12.39,46.44-8.06.07Zm-.94,42.77a4.31,4.31,0,0,1-1-1.73,3.73,3.73,0,0,1-1,1.73Zm12.75-50.84-.51-1.87h-10.8l.51,1.87Zm.86,3.6-.43-1.87H665.1l.5,1.87Zm.94,3.6-.43-1.87H666l.5,1.87Zm1,3.68-.51-1.88H667l.51,1.88Zm.93,3.6-.5-1.88H668l.5,1.88Zm.94,3.67-.51-1.87H668.92l.5,1.87Zm1,3.6-.51-1.87H669.92l.51,1.87Zm.86,3.6-.5-1.87H670.86l.5,1.87Zm.94,3.67-.43-1.87H671.8l.5,1.87Zm1,3.6-.5-1.87H672.8l.51,1.87Zm.94,3.6-.5-1.87H673.74l.5,1.87Zm-.5,3.67.43-1.87H674.68l.5,1.87Zm-.94,3.61.5-1.88h-8.28l.51,1.88Zm-1,3.6.51-1.88h-6.34l.5,1.88Zm-1,3.67.5-1.87h-4.39l.5,1.87Zm28.15,0a6.93,6.93,0,0,1-.43-1.87h-10a6.92,6.92,0,0,1-.51,1.87Zm-.43-50.77a6.36,6.36,0,0,1,.43-1.87H699.23v1.87ZM709,209v-1.87h-9.79V209Zm0,3.6v-1.87h-9.79v1.87Zm0,3.68v-1.88h-9.79v1.88Zm0,3.6V218h-9.79v1.88Zm0,3.67v-1.87h-9.79v1.87Zm0,3.6v-1.87h-9.79v1.87Zm0,3.6v-1.87h-9.79v1.87Zm0,3.67v-1.87h-9.79v1.87Zm0,3.6v-1.87h-9.79v1.87Zm0,3.6v-1.87h-9.79v1.87Zm0,3.67v-1.87h-9.79v1.87Zm0,3.61v-1.88h-9.79v1.88Zm0,3.6v-1.88h-9.79v1.88Z" fill="#fff"/>
    <path d="M723.27,256.21h2.16c3,0,3.61-.58,3.61-3.6V207.17c0-3-.58-3.6-3.61-3.6h-2.16v-3h43.86v19.29h-3.24c0-10.58-8-16.27-16.42-16.41-.72,0-2.23.07-2.23.57v23.55c4.82,0,9-5.26,9-12.53h3.24v28.37h-3.24c0-8.42-4.18-12.82-9-12.82l-.08,22c0,2.88.58,4,3.24,4,8.72,0,16.21-11.67,16.64-20.74h3.24l-.72,23.4H723.27Zm18.94-50.77v-1.87H731.48a6.68,6.68,0,0,1,.44,1.87Zm.43,50.77a7.33,7.33,0,0,1-.43-1.87H731.92a6.68,6.68,0,0,1-.44,1.87ZM742.21,209v-1.87H732.06V209Zm0,3.68v-1.88H732.06v1.88Zm0,3.6v-1.88H732.06v1.88Zm0,3.6V218H732.06v1.88Zm0,3.67v-1.87H732.06v1.87Zm0,3.6v-1.87H732.06v1.87Zm0,3.6v-1.87H732.06v1.87Zm0,3.67v-1.87H732.06v1.87Zm0,3.6v-1.87H732.06v1.87Zm-.07,3.68.07-1.88H732.06v1.88Zm0,3.59v-1.87H732.06v1.87Zm0,3.61v-1.88H732.06v1.88Zm0,3.67v-1.87H732.06v1.87Zm12.31-24.56v-3.24a9.5,9.5,0,0,1-3.6,3.24Zm0,1.95h-3.6a9.64,9.64,0,0,1,3.6,3.09Zm10.16,26.21.07-1.87h-5.4c-.72.64-1.44,1.29-2.16,1.87Zm-.51-51v-1.59h-5.54a23.45,23.45,0,0,1,2.09,1.59Zm.58,47.59.07-1.87h-2.52a12.13,12.13,0,0,1-1.51,1.87Zm-.58-46h-1.94a18.66,18.66,0,0,1,1.94,2.81Zm.72,42.56.07-2.6a23.25,23.25,0,0,1-1.51,2.6Z" fill="#fff"/>
  </g>
</svg>
