<svg id="Layer_1" data-name="Layer 1" xmlns="http://www.w3.org/2000/svg" width="11in" height="2.13in" viewBox="0 0 792 153.63">
  <g>
    <path d="M344.91,26.12c0,.31-.15.47-.44.47s-.49-.32-.61-.94c-.05-.43-.09-.86-.14-1.3a6.37,6.37,0,0,0-.83-2.19,3.51,3.51,0,0,0-2.48-1.51,7.21,7.21,0,0,0-1.8-.18c-1.13,0-1.82.05-2.06.07V42.28c0,.86.23,1.41.69,1.62a6.76,6.76,0,0,0,2,.22c.29,0,.44.12.44.3s-.2.31-.58.31a2.47,2.47,0,0,1-.5,0c-1.44,0-2.46-.07-3.06-.07-.8,0-1.54,0-2.24.06s-1.58,0-2.66,0c-.55,0-.83-.1-.83-.29s.52-.33,1.55-.36c.74,0,1.22-.15,1.44-.47a3.55,3.55,0,0,0,.18-1.48V20.54a17.44,17.44,0,0,0-4.43.36q-2.26.83-2.66,4.43-.11,1.08-.51,1.08c-.28,0-.43-.26-.43-.76a7,7,0,0,1,0-.79l.07-.83c.07-1.1.18-2.56.32-4.36H327l7.35.11c.86,0,2.21,0,4,0l6-.11c0,1.35.2,3.34.46,6a1.76,1.76,0,0,0,0,.27C344.89,26,344.91,26.09,344.91,26.12Z" fill="#231f20"/>
    <path d="M363.05,44.44c0,.17-.36.25-1.08.25h-5c-.53,0-.8,0-.8-.23s.2-.21.6-.23c.78,0,1.19-.14,1.24-.33a5,5,0,0,0,.07-1.19V36.13h-6.8v7.41a.61.61,0,0,0,.3.51,4.25,4.25,0,0,0,1.22.14c.26,0,.39.08.39.25s-.24.25-.72.25h-5.58c-.36,0-.54-.08-.54-.25s.34-.26,1-.29c.53,0,.82-.16.86-.43V30.26a8.54,8.54,0,0,0,0-1.08c0-.19-.24-.29-.65-.29-.82,0-1.22-.14-1.22-.36s.16-.22.5-.22h5.69c.41,0,.61.1.61.29s-.32.31-.95.29a1.35,1.35,0,0,0-.76.13c-.11.08-.16.33-.16.73v5.69h6.8V30.55a5.34,5.34,0,0,0-.07-1.27c-.05-.28-.28-.4-.71-.35h-.67c-.3-.05-.46-.16-.46-.31s.26-.31.76-.31h5.22c.58,0,.86.09.86.26s-.16.28-.48.28-.6,0-.81,0-.49.06-.54.18a4.78,4.78,0,0,0-.07,1.15V42.68q0,1.22.18,1.35a3.47,3.47,0,0,0,1.26.12C362.88,44.15,363.05,44.25,363.05,44.44Z" fill="#231f20"/>
    <path d="M378.35,40.82s0,.18-.05.46a5.36,5.36,0,0,0-.06.75v2.09a2.8,2.8,0,0,0,.11.72l-6-.11-6.87.11c-.51,0-.76-.1-.76-.29s.14-.32.43-.32a2.93,2.93,0,0,0,1.35-.17c.13-.1.2-.49.2-1.17V30.51c0-1-.09-1.51-.26-1.57a5,5,0,0,0-1.26-.09c-.28,0-.43-.08-.43-.25s.16-.29.47-.29h12.31v.25l0,.53c.05.36.14,1.42.29,3.2a2.58,2.58,0,0,1,0,.42c0,.31-.08.46-.25.46s-.37-.24-.46-.72c-.34-1.82-1-2.89-1.91-3.2a16,16,0,0,0-3.72-.25h-1.83v6.73h.86a6.21,6.21,0,0,0,2.82-.38c.35-.25.59-.94.71-2.07.07-.67.22-1,.43-1s.36.24.36.72c0,.29,0,.74-.05,1.34s0,1.05,0,1.36c0,1.56,0,2.63.08,3.21,0,.19,0,.35,0,.47,0,.38-.12.57-.35.57s-.36-.3-.43-.9c-.14-1.29-.38-2.07-.71-2.32a6,6,0,0,0-2.8-.38h-.89v7.78a41.12,41.12,0,0,0,6.2-.29c.95-.26,1.52-1.42,1.68-3.46,0-.36.16-.54.4-.54S378.35,40.16,378.35,40.82Z" fill="#231f20"/>
    <path d="M406.14,26.12c0,.31-.14.47-.43.47s-.49-.32-.61-.94l-.15-1.3a6.18,6.18,0,0,0-.83-2.19,3.51,3.51,0,0,0-2.48-1.51,7.13,7.13,0,0,0-1.8-.18c-1.13,0-1.81.05-2,.07V42.28c0,.86.23,1.41.68,1.62a6.79,6.79,0,0,0,2,.22c.29,0,.43.12.43.3s-.19.31-.58.31a2.47,2.47,0,0,1-.5,0c-1.44,0-2.46-.07-3.06-.07-.79,0-1.54,0-2.23.06s-1.59,0-2.67,0c-.55,0-.82-.1-.82-.29s.51-.33,1.54-.36c.75,0,1.23-.15,1.44-.47a3.55,3.55,0,0,0,.18-1.48V20.54a17.34,17.34,0,0,0-4.42.36c-1.52.55-2.4,2-2.67,4.43-.07.72-.24,1.08-.5,1.08s-.43-.26-.43-.76c0-.26,0-.53,0-.79l.07-.83c.08-1.1.18-2.56.33-4.36h1.62l7.34.11c.87,0,2.21,0,4,0l6-.11c0,1.35.2,3.34.47,6a1.57,1.57,0,0,0,0,.27A.92.92,0,0,1,406.14,26.12Z" fill="#231f20"/>
    <path d="M414.49,44.48c0,.14-.11.21-.32.21h-6.05c-.41,0-.61-.06-.61-.18s.26-.26.79-.28c.72,0,1.1-.14,1.13-.26a9.82,9.82,0,0,0,.06-1.56V30.74a10.91,10.91,0,0,0-.07-1.65q-.07-.24-.54-.27H407.8c-.22,0-.33-.09-.33-.25s.16-.26.47-.26h5.94c.38,0,.58.1.58.29s-.41.23-1.23.25c-.33,0-.54.06-.61.17a2.46,2.46,0,0,0-.11,1V43.58a.46.46,0,0,0,.27.47,5.85,5.85,0,0,0,1.28.18C414.35,44.25,414.49,44.33,414.49,44.48Z" fill="#231f20"/>
    <path d="M432.89,36.5A7.53,7.53,0,0,1,429.65,43a10.14,10.14,0,0,1-6,1.66h-7c-.41,0-.61-.11-.61-.34s.14-.29.43-.27h.83c.48,0,.74-.11.79-.39a5.06,5.06,0,0,0,.08-1.26V30.93a9.47,9.47,0,0,0-.08-1.83c-.12-.14-.54-.22-1.26-.25-.43,0-.65-.08-.65-.25s.22-.29.65-.29h4a27.09,27.09,0,0,1,6.7.58,7,7,0,0,1,3.85,2.8A8.13,8.13,0,0,1,432.89,36.5Zm-3.46-.12q0-7.46-6-7.45a5.05,5.05,0,0,0-2,.19c-.14.14-.2.57-.2,1.32V43.15c0,.43.1.69.3.79a5.19,5.19,0,0,0,1.56.14Q429.44,44.08,429.43,36.38Z" fill="#231f20"/>
    <path d="M448.33,40.82s0,.18-.05.46a5.36,5.36,0,0,0-.06.75v2.09a2.8,2.8,0,0,0,.11.72l-6-.11-6.88.11c-.51,0-.76-.1-.76-.29s.14-.32.43-.32a2.93,2.93,0,0,0,1.35-.17c.13-.1.2-.49.2-1.17V30.51c0-1-.09-1.51-.25-1.57a5.11,5.11,0,0,0-1.26-.09c-.29,0-.44-.08-.44-.25s.16-.29.47-.29H447.5v.25l0,.53c0,.36.14,1.42.29,3.2a2.58,2.58,0,0,1,0,.42c0,.31-.08.46-.25.46s-.37-.24-.46-.72c-.34-1.82-1-2.89-1.9-3.2a16.2,16.2,0,0,0-3.73-.25h-1.83v6.73h.86a6.21,6.21,0,0,0,2.82-.38c.36-.25.6-.94.71-2.07.08-.67.22-1,.44-1s.36.24.36.72c0,.29,0,.74-.06,1.34s-.05,1.05-.05,1.36c0,1.56,0,2.63.08,3.21,0,.19,0,.35,0,.47q0,.57-.36.57t-.42-.9c-.15-1.29-.38-2.07-.71-2.32a6,6,0,0,0-2.81-.38h-.89v7.78a41.12,41.12,0,0,0,6.2-.29c1-.26,1.52-1.42,1.69-3.46q0-.54.39-.54T448.33,40.82Z" fill="#231f20"/>
    <path d="M461.11,40.07a4.3,4.3,0,0,1-1.73,3.44A6.29,6.29,0,0,1,455.21,45a7.59,7.59,0,0,1-3.78-1.12,1.1,1.1,0,0,0-.29-.07c-.14,0-.23.11-.25.34a4.16,4.16,0,0,1-.11.59.34.34,0,0,1-.36.26.32.32,0,0,1-.36-.36c0-.05,0-.41.07-1.08s.07-1.25.07-1.73V39.94c0-.45.12-.68.36-.68s.42.37.54,1.11q.69,4,4.25,4,3,0,3-3a3.16,3.16,0,0,0-.72-2.15,9.56,9.56,0,0,0-2.81-1.86,14.48,14.48,0,0,1-3.49-2.15,3.62,3.62,0,0,1-1-2.58,4.14,4.14,0,0,1,1.44-3.25,5.34,5.34,0,0,1,3.64-1.27,6.29,6.29,0,0,1,2.92.83.63.63,0,0,0,.28.11c.17,0,.28-.18.33-.52s.19-.53.43-.53a.32.32,0,0,1,.36.36,1.55,1.55,0,0,1,0,.29,14.52,14.52,0,0,0-.07,1.48c0,.36,0,1,.11,1.94a1.66,1.66,0,0,1,0,.33c0,.28-.1.43-.29.43s-.37-.22-.47-.64a4.7,4.7,0,0,0-1.31-2.52,3.27,3.27,0,0,0-2.33-.95c-1.72,0-2.59.92-2.59,2.76a2.92,2.92,0,0,0,.69,2,3,3,0,0,0,.79.68q.44.26,2.52,1.26a11.43,11.43,0,0,1,3.31,2.2A3.57,3.57,0,0,1,461.11,40.07Z" fill="#231f20"/>
  </g>
  <g>
    <path d="M391.44,66.34a3.61,3.61,0,0,0-.14.91.47.47,0,0,0,.53.54,1.24,1.24,0,0,0,.75-.24,2.54,2.54,0,0,0,.58-.55,3.76,3.76,0,0,0,.4-.61l.22-.42.27.14a5.9,5.9,0,0,1-.31.59,3.16,3.16,0,0,1-.55.68,3.27,3.27,0,0,1-.78.57,2.09,2.09,0,0,1-1,.24q-1.38,0-1.38-1.26a3.6,3.6,0,0,1,.06-.51,3.51,3.51,0,0,1,.17-.66h0c-.2.23-.42.5-.67.78a7.18,7.18,0,0,1-.85.8,4.57,4.57,0,0,1-1.05.61,3.13,3.13,0,0,1-1.25.24,2.3,2.3,0,0,1-.86-.16,1.9,1.9,0,0,1-.72-.48,2.26,2.26,0,0,1-.49-.83,3.53,3.53,0,0,1-.18-1.2,4.57,4.57,0,0,1,.33-1.68,8.08,8.08,0,0,1,.88-1.6,8.71,8.71,0,0,1,1.23-1.42A12,12,0,0,1,388,59.69a7.11,7.11,0,0,1,1.43-.76,3.57,3.57,0,0,1,1.25-.27,1.68,1.68,0,0,1,1.07.35,1.15,1.15,0,0,1,.44,1h0l.36-1h1.47l-2.29,6.36C391.64,65.66,391.53,66,391.44,66.34Zm.48-5.62a1.86,1.86,0,0,0,.07-.49,1.58,1.58,0,0,0-.05-.41,1.12,1.12,0,0,0-.56-.73,1.16,1.16,0,0,0-.6-.14,2.63,2.63,0,0,0-1.36.39,5.56,5.56,0,0,0-1.24,1,8.94,8.94,0,0,0-1.06,1.44,13.17,13.17,0,0,0-.83,1.63,10.42,10.42,0,0,0-.53,1.61,5.67,5.67,0,0,0-.19,1.37,2,2,0,0,0,.26,1.09.94.94,0,0,0,.87.42,2.41,2.41,0,0,0,1.24-.38,5.92,5.92,0,0,0,1.16-.9,8.4,8.4,0,0,0,.9-1,3.92,3.92,0,0,0,.48-.82l1.11-3.09Q391.85,61,391.92,60.72Z" fill="#231f20"/>
    <path d="M400.56,56.87l-.75,2.06h2.28l-.08.29h-2.29l-2.39,6.68-.21.65a2.29,2.29,0,0,0-.11.67.76.76,0,0,0,.16.51.65.65,0,0,0,.51.19,1.28,1.28,0,0,0,.72-.23,3.93,3.93,0,0,0,.61-.54,4.31,4.31,0,0,0,.46-.62,3.81,3.81,0,0,0,.27-.5l.25.1a5.47,5.47,0,0,1-.27.52,3.33,3.33,0,0,1-.5.69,2.89,2.89,0,0,1-.79.6,2.32,2.32,0,0,1-1.12.25,1.65,1.65,0,0,1-1.2-.39,1.24,1.24,0,0,1-.4-.93,3.31,3.31,0,0,1,.16-1c.1-.36.21-.68.32-1l2.06-5.72h-1.89l.09-.29h1.88l.76-2.06Z" fill="#231f20"/>
  </g>
  <g>
    <path d="M143.22,103.74c0-10.85,5.42-20.64,15.65-20.64,5.28,0,7.1,3.07,8.49,3.07.53,0,1-.48,1.11-2.49h2V97h-2c-.15-6.14-3.6-11.52-7.59-11.52-4.6,0-5.23,7.68-5.23,18.29,0,12.63,1.3,17.57,5,17.57,4.18,0,8.12-6.24,8.31-13.87h2.25c-.28,6.24-2.3,16.13-12.62,16.13C148.88,123.57,143.22,114.83,143.22,103.74Zm10.37.24v-1.24h-8.31a6.7,6.7,0,0,0-.05,1V104Zm0-2.49c0-.44,0-.82,0-1.25h-8.2l-.15,1.25Zm0,5c0-.43,0-.86,0-1.25h-8.31a11.24,11.24,0,0,0,.1,1.25Zm.05,2.45a10.12,10.12,0,0,1-.05-1.25h-8.16c.1.43.15.86.24,1.25ZM153.63,99a10.37,10.37,0,0,0,.05-1.25h-7.87L145.57,99Zm.2,12.43c-.05-.38-.05-.81-.1-1.24H146c.1.43.24.86.34,1.24Zm-.05-14.88a12.24,12.24,0,0,1,.09-1.25h-7.39c-.14.39-.24.82-.38,1.25Zm.29,17.38-.15-1.25h-7.2c.19.43.34.87.53,1.25Zm0-19.87a9.36,9.36,0,0,1,.14-1.25h-6.62L147,94.05Zm.48,22.37a9.54,9.54,0,0,1-.24-1.25h-6.34c.29.43.53.86.82,1.25Zm-.19-24.87a8.14,8.14,0,0,1,.24-1.25H149c-.29.39-.53.82-.82,1.25Zm.86,27.36a11.22,11.22,0,0,1-.38-1.25h-5c.43.44.86.87,1.29,1.25Zm-.34-29.86.44-1.24h-3.94A15.74,15.74,0,0,0,150,89.05Zm.87,31.06h-2.83a10.15,10.15,0,0,0,3.6,1.25A6.2,6.2,0,0,1,155.7,120.11Zm.09-33.55a10.77,10.77,0,0,1,.82-1.25,12.49,12.49,0,0,0-3.5,1.25Zm12.82.81a1.88,1.88,0,0,1-1.1.34h-.15a11.73,11.73,0,0,1,1.25,2.11Z" fill="#231f20"/>
    <path d="M174.61,120.83h1.44c2,0,2.4-.38,2.4-2.4V88.14c0-2-.39-2.4-2.4-2.4h-1.44v-2h18.24v2h-1.2c-2,0-2.4.39-2.4,2.4v13.68h8.69V88.14c0-2-.39-2.4-2.4-2.4h-1.2v-2h18.24v2h-1.44c-2,0-2.4.39-2.4,2.4v30.29c0,2,.38,2.4,2.4,2.4h1.44v2H194.34v-2h1.2c2,0,2.4-.38,2.4-2.4V103.84h-8.69v14.59c0,2,.38,2.4,2.4,2.4h1.2v2H174.61ZM187.33,87a4.26,4.26,0,0,1,.29-1.25h-7.54a4.53,4.53,0,0,1,.34,1.25Zm.29,33.84a4.59,4.59,0,0,1-.29-1.25h-6.91a5,5,0,0,1-.34,1.25Zm-.39-31.44V88.14h-6.77v1.25Zm0,2.4V90.54h-6.77v1.25Zm0,2.45V93h-6.77v1.25Zm0,2.4V95.39h-6.77v1.25Zm0,2.45V97.84h-6.77v1.25Zm0,2.4v-1.25h-6.77v1.25Zm0,2.4v-1.25h-6.77v1.25Zm0,2.45v-1.25h-6.77v1.25Zm0,2.4v-1.25h-6.77v1.25Zm0,2.4v-1.25h-6.77v1.25Zm0,2.44v-1.24h-6.77v1.24Zm0,2.4v-1.24h-6.77V116Zm0,2.4v-1.24h-6.77v1.24ZM206.82,87a4.26,4.26,0,0,1,.29-1.25h-7.54a4.53,4.53,0,0,1,.34,1.25Zm.29,33.84a4.59,4.59,0,0,1-.29-1.25h-6.91a5,5,0,0,1-.34,1.25Zm-.39-31.44V88.14H200v1.25Zm0,2.4V90.54H200v1.25Zm0,2.45V93H200v1.25Zm0,2.4V95.39H200v1.25Zm0,2.45V97.84H200v1.25Zm0,2.4v-1.25H200v1.25Zm0,2.4v-1.25H200v1.25Zm0,2.45v-1.25H200v1.25Zm0,2.4v-1.25H200v1.25Zm0,2.4v-1.25H200v1.25Zm0,2.44v-1.24H200v1.24Zm0,2.4v-1.24H200V116Zm0,2.4v-1.24H200v1.24Z" fill="#231f20"/>
    <path d="M216.22,120.83h1.44c2,0,2.4-.38,2.4-2.4V88.14c0-2-.38-2.4-2.4-2.4h-1.44v-2h29.24V96.59H243.3c0-7.06-5.33-10.85-11-10.94-.48,0-1.48,0-1.48.38v15.7c3.21,0,6-3.51,6-8.36H239v18.92h-2.16c0-5.62-2.79-8.55-6-8.55l-.05,14.69c0,1.92.38,2.64,2.16,2.64,5.81,0,10.8-7.77,11.09-13.82h2.16l-.48,15.6H216.22ZM228.85,87V85.74H221.7A4.27,4.27,0,0,1,222,87Zm.29,33.84a4.59,4.59,0,0,1-.29-1.25H222a4.2,4.2,0,0,1-.28,1.25Zm-.29-31.44V88.14h-6.77v1.25Zm0,2.45V90.59h-6.77v1.25Zm0,2.4V93h-6.77v1.25Zm0,2.4V95.39h-6.77v1.25Zm0,2.45V97.84h-6.77v1.25Zm0,2.4v-1.25h-6.77v1.25Zm0,2.4v-1.25h-6.77v1.25Zm0,2.45v-1.25h-6.77v1.25Zm0,2.4v-1.25h-6.77v1.25Zm0,2.44,0-1.24h-6.77v1.24Zm0,2.4v-1.24h-6.72v1.24Zm0,2.4v-1.24h-6.72V116Zm0,2.45v-1.25h-6.72v1.25ZM237,102.06V99.9a6.28,6.28,0,0,1-2.4,2.16Zm0,1.3h-2.4a6.52,6.52,0,0,1,2.4,2.06Zm6.77,17.47.05-1.25h-3.6c-.48.44-1,.87-1.44,1.25Zm-.34-34V85.74h-3.69a14.55,14.55,0,0,1,1.39,1.06Zm.39,31.73,0-1.25h-1.68a8.3,8.3,0,0,1-1,1.25Zm-.39-30.68h-1.29a12.49,12.49,0,0,1,1.29,1.88Zm.48,28.37.05-1.72a15.39,15.39,0,0,1-1,1.72Z" fill="#231f20"/>
    <path d="M251.17,120.69l17.14-34.95h-5.77c-5.47,0-8.2,10.8-8.2,14.11h-2l0-16.12h27.56l-.2,2-16,35.09,5.14,0c5.76,0,9.5-8.93,10-14h2l-.33,15.94H251.12Zm10.32.14.57-1.25H254l-.62,1.25ZM256.88,87A9.86,9.86,0,0,1,258,85.74h-3.79V87Zm-1.54,2.4c.24-.43.48-.86.72-1.25h-1.82v1.25ZM255,90.54h-.77v1.25Zm7.53,27.84.58-1.24h-8l-.62,1.24Zm1.11-2.4.58-1.24h-7.88l-.62,1.24Zm1.1-2.4.58-1.24h-7.78l-.62,1.24Zm1.11-2.44.57-1.25H258.7l-.62,1.25Zm1.1-2.4.58-1.25H259.9l-.62,1.25Zm1.1-2.4.58-1.25H261.1l-.62,1.25Zm1.11-2.45.58-1.25h-7.44l-.63,1.25Zm1.1-2.4.58-1.25h-7.39l-.63,1.25Zm1.11-2.4.57-1.25h-7.29L264,99.09Zm1.1-2.45.58-1.25h-7.2l-.63,1.25Zm1.11-2.4.52-1.25H267l-.62,1.25Zm1.05-2.45.58-1.25h-7l-.62,1.25Zm1.15-2.4.58-1.25h-7l-.62,1.25Zm1.06-2.4.58-1.25h-6.87L269.94,87Zm1.68,33.84.05-1.25h-3.17a14.37,14.37,0,0,1-1.34,1.25Zm.05-2.45.05-1.24h-1.3a12.76,12.76,0,0,1-.91,1.24Zm.09-2.4v-1.29a11.23,11.23,0,0,1-.81,1.29Z" fill="#231f20"/>
    <path d="M298.64,120.83h1.44c2,0,2.4-.38,2.4-2.4l.1-30.77c-.05-1.63-.53-1.92-2.4-1.92h-1.45v-2h20c7.68,0,11.33,3.84,11.33,9.6s-3.74,8.64-7.34,9.07v.19c3.41,0,8.35,2.64,8.35,9.65,0,5.86-3.46,10.61-10.61,10.61H298.64Zm12.24,0v-1.25H304.4a4.18,4.18,0,0,1-.29,1.25Zm0-33.84V85.74h-6.67a4.67,4.67,0,0,1,.33,1.25Zm0,24.19v-1.24H304.5v1.24Zm0,2.4v-1.24H304.5v1.24Zm0,2.4v-1.24H304.5V116Zm0,2.45v-1.25H304.5v1.25Zm0-21.79V95.39h-6.34v1.25Zm0,2.45V97.84h-6.34v1.25Zm0,2.4v-1.25h-6.34v1.25Zm0,2.4v-1.25h-6.34v1.25Zm0,2.45v-1.25h-6.34v1.25Zm0,2.4v-1.25h-6.34v1.25Zm0-19.35V88.14h-6.29v1.25Zm0,2.45V90.59h-6.29v1.25Zm0,2.4V93h-6.29v1.25Zm8.59-.58c0-5-1.24-8.06-4.89-8.06a10.11,10.11,0,0,0-1.68.14v16a17.69,17.69,0,0,0,1.92.15C318.23,101.92,319.47,98.7,319.47,93.66Zm-.14,18.58c0-5.14-1.25-8.69-4.37-8.69a9.09,9.09,0,0,0-2.06.15v17.13c.33,0,1.68.1,2.06.1C318.08,120.93,319.33,117.42,319.33,112.24Zm6,7.49H320a7.28,7.28,0,0,1-.76,1.29A11.48,11.48,0,0,0,325.33,119.73Zm-.34-15a11.9,11.9,0,0,0-5.76-1.29,5.51,5.51,0,0,1,.77,1.29Zm-1.05-4.13h-3.79a5,5,0,0,1-.77,1.2A9.36,9.36,0,0,0,323.94,100.62ZM324.85,87a9.82,9.82,0,0,0-5.23-1.3c.24.39.48.82.72,1.3Zm1.92,31.63a6.5,6.5,0,0,0,1-1.25h-7c-.14.44-.24.87-.38,1.25Zm.91-11.61a6.57,6.57,0,0,0-1.1-1.25h-6.15c.15.38.24.81.39,1.25Zm-2.06-7.68a5,5,0,0,0,1-1.25h-5.57a11.4,11.4,0,0,1-.34,1.25Zm1.58-9.89a10.53,10.53,0,0,0-.91-1.25h-5.52a8.76,8.76,0,0,1,.33,1.25Zm1.54,19.92a10.82,10.82,0,0,0-.48-1.25H321l.19,1.25Zm-.39,6.91a9.19,9.19,0,0,0,.44-1.25H321.2l-.19,1.25ZM328,92a5.18,5.18,0,0,0-.29-1.25H321.3l.14,1.25Zm-.67,5a11.57,11.57,0,0,0,.48-1.25h-6.34l-.14,1.25Zm1.77,14.78a9.93,9.93,0,0,0-.09-1.25H321.3l.05,1.25ZM329,114a9.93,9.93,0,0,0,.09-1.25h-7.72L321.3,114Zm-1-19.59a9.24,9.24,0,0,0,.05-1.2v0h-6.58v1.25Z" fill="#231f20"/>
    <path d="M337.71,113.15v-25c0-2-.38-2.4-2.4-2.4h-1.44v-2H352v2h-1.2c-2,0-2.4.39-2.4,2.4v26c0,4,2.11,5.91,5,5.91s5.09-1.92,5.09-6.39V88.14c0-2-.39-2.4-2.4-2.4h-.72v-2h8.83v2h-1c-2,0-2.4.39-2.4,2.4v25.49c0,6.15-3.5,9.75-11.57,9.75C340.4,123.38,337.71,118.48,337.71,113.15Zm8.79-26.21a3.92,3.92,0,0,1,.28-1.2h-7.44a3.87,3.87,0,0,1,.34,1.2Zm-.1,2.45V88.14h-6.67v1.25Zm0,2.45V90.59h-6.67v1.25Zm0,2.49V93.09h-6.67v1.24Zm0,2.45V95.53h-6.67v1.25Zm0,2.45V98h-6.67v1.25Zm0,2.45v-1.25h-6.67v1.25Zm0,2.45v-1.25h-6.67v1.25Zm0,2.45v-1.25h-6.67v1.25Zm0,2.44v-1.24h-6.67V109Zm0,2.5v-1.25h-6.67v1.25Zm0,2.45v-1.25h-6.67v.43a6,6,0,0,0,0,.82Zm.24,2.45a9.62,9.62,0,0,1-.19-1.25h-6.58a9.53,9.53,0,0,0,.34,1.25Zm1,2.44a9.56,9.56,0,0,1-.62-1.24h-6.25a6.05,6.05,0,0,0,.92,1.24Zm2.64,2.45a5.6,5.6,0,0,1-1.73-1.25h-5.33a11.3,11.3,0,0,0,5.28,1.25Zm10.13-35.62H359a7,7,0,0,1,.68,1.16A6.92,6.92,0,0,1,360.37,85.69Z" fill="#231f20"/>
    <path d="M387.1,112.91c-.81-5.66-1.77-9.41-5.37-9.41-.44,0-.53,0-.63,0v14.88c0,2,.39,2.4,2.4,2.4h1.44v2H366.7v-2h1.44c2,0,2.4-.38,2.4-2.4V88.14c0-2-.38-2.4-2.4-2.4H366.7v-2h17.67c9.45,0,14.4,2.73,14.4,9.4,0,5.57-3.41,9.27-8.4,9.84v.2c7.92,1.39,8.69,9.89,8.88,12.09.09.92-.05,2.45,1,2.45s1.58-1.58,1.78-4.13l2,.34c-.19,5.62-2.93,9.55-8.35,9.55C388.69,123.47,387.68,116.94,387.1,112.91Zm-8-25.92V85.74h-6.92a6.56,6.56,0,0,1,.34,1.25Zm.38,33.84a5,5,0,0,1-.29-1.25h-6.67a7.51,7.51,0,0,1-.34,1.25Zm-.38-31.44V88.14h-6.53v1.25Zm0,2.45V90.59h-6.53v1.25Zm0,2.4V93h-6.53v1.25Zm0,2.4V95.39h-6.53v1.25Zm0,2.45V97.84h-6.53v1.25Zm0,2.4v-1.25h-6.53v1.25Zm0,2.4v-1.25h-6.53v1.25Zm0,2.45v-1.25h-6.53v1.25Zm0,2.4v-1.25h-6.53v1.25Zm0,2.44v-1.24h-6.53v1.24Zm0,2.4v-1.24h-6.53v1.24Zm0,2.4v-1.24h-6.53V116Zm0,2.45v-1.25h-6.53v1.25Zm8.54-24.72c0-5.33-1.68-8.3-5.37-8.3a4.1,4.1,0,0,0-1.16.14v16.18a3.09,3.09,0,0,0,1.2.19C386.05,101.92,387.63,98.89,387.63,93.71Zm3.7,11.14a10.29,10.29,0,0,0-5-1.15,5,5,0,0,1,.72,1.15Zm1.15-4.23h-4.37a7.22,7.22,0,0,1-1,1.3A10,10,0,0,0,392.48,100.62Zm.86-13.49a15.58,15.58,0,0,0-5.95-1.34,8.68,8.68,0,0,1,.82,1.34Zm.87,20.07A11.35,11.35,0,0,0,393,106h-5.42a11.57,11.57,0,0,1,.48,1.25Zm1.49,2.4a12.45,12.45,0,0,0-.68-1.25H388.3l.29,1.25Zm-1.59-10.18a6.73,6.73,0,0,0,1.11-1.24h-6.15l-.43,1.24Zm1.73-9.84a6.36,6.36,0,0,0-.91-1.25h-6.19a11.41,11.41,0,0,1,.38,1.25Zm.77,22.37a9.59,9.59,0,0,0-.39-1.25h-7.39L389,112Zm.53,2.35-.24-1.24h-7.73l.19,1.24ZM395.94,97a7,7,0,0,0,.48-1.24h-6.87a10.62,10.62,0,0,1-.19,1.24Zm.72-4.94a5.69,5.69,0,0,0-.29-1.25h-7A11.7,11.7,0,0,1,389.6,92Zm.72,24.63a5.32,5.32,0,0,1-.15-1.2v0h-7.68a9.53,9.53,0,0,0,.34,1.25Zm-.72-22.13c0-.39.09-.82.09-1.2v0h-7.1v.48a4.25,4.25,0,0,1,0,.77Zm1.68,24.53a3.41,3.41,0,0,1-.67-1.25h-7.35a10.66,10.66,0,0,0,.67,1.25Zm1.29,1.1h-7.77a5.14,5.14,0,0,0,3.6,1.3A6.11,6.11,0,0,0,399.63,120.16Z" fill="#231f20"/>
    <path d="M406.11,120.83h1.44c2,0,2.4-.38,2.4-2.4V88.14c0-2-.38-2.4-2.4-2.4h-1.44v-2h18.48v2h-1.44c-2,0-2.4.39-2.4,2.4v29.38c0,2.64.48,3.46,2,3.46,4.56,0,9.31-8,9.79-14h2l-.39,15.89h-28ZM418.83,87a4.6,4.6,0,0,1,.29-1.25h-7.54a6.56,6.56,0,0,1,.34,1.25Zm.43,33.84a5.46,5.46,0,0,1-.33-1.25h-7a7.51,7.51,0,0,1-.34,1.25Zm-.52-31.44V88.14H412v1.25Zm0,2.45V90.59H412v1.25Zm0,2.4V93H412v1.25Zm0,2.4V95.39H412v1.25Zm0,2.45V97.84H412v1.25Zm0,2.4v-1.25H412v1.25Zm0,2.4v-1.25H412v1.25Zm0,2.45v-1.25H412v1.25Zm0,2.4v-1.25H412v1.25Zm0,2.44v-1.24H412v1.24Zm0,2.4v-1.24H412v1.24Zm0,2.4v-1.24H412V116Zm0,2.45,0-.91v-.34H412v1.25Zm13.4,2.4,0-1.25H429.1a14.37,14.37,0,0,1-1.34,1.25Zm.09-2.35v-1.25h-1.34c-.29.43-.58.82-.91,1.25Zm.05-2.3-.05-1.44a14.79,14.79,0,0,1-.86,1.44Z" fill="#231f20"/>
    <path d="M437.21,120.83h1.45c1.92,0,2.4-.38,2.4-2.06V88.14c0-2-.44-2.4-2.45-2.4h-1.44v-2h18.48v2h-1.44c-2,0-2.4.39-2.4,2.4v30.29c0,2,.38,2.4,2.4,2.4h1.44v2H437.21ZM449.89,87a4.26,4.26,0,0,1,.29-1.25h-7.54A4.53,4.53,0,0,1,443,87Zm.29,33.84a4.59,4.59,0,0,1-.29-1.25H443a5,5,0,0,1-.34,1.25Zm-.39-31.44V88.14H443v1.25Zm0,2.4V90.54H443v1.25Zm0,2.45V93H443v1.25Zm0,2.4V95.39H443v1.25Zm0,2.45V97.84H443v1.25Zm0,2.4v-1.25H443v1.25Zm0,2.4v-1.25H443v1.25Zm0,2.45v-1.25H443v1.25Zm0,2.4v-1.25H443v1.25Zm0,2.4v-1.25H443v1.25Zm0,2.44v-1.24H443v1.24Zm0,2.4v-1.24H443V116Zm0,2.4v-1.24H443v1.24Z" fill="#231f20"/>
    <path d="M459.29,120.83h1c2,0,2.5-.38,2.5-2.4V87.57c0-1.54-.53-1.83-2.35-1.83h-1v-2h14.45l11.95,23.66V88.14c0-2.11-.39-2.4-2.4-2.4h-1v-2h9v2h-1c-1.72,0-2.3.29-2.3,2.35L488,122.85h-7.68L464.86,91.26l.29,27.17c.05,2,.53,2.4,2.4,2.4h1.2v2h-9.46Zm5.24,0a6.84,6.84,0,0,1-.67-1.15,7.69,7.69,0,0,1-.68,1.15ZM473.36,87l-.62-1.25h-8.36a3.5,3.5,0,0,1,.34.58l.34.67Zm1.2,2.4-.62-1.25h-8.36l.63,1.25Zm1.25,2.4-.63-1.25h-8.4l.63,1.25Zm1.2,2.45L476.38,93h-8.44l.62,1.25Zm1.25,2.4-.68-1.25h-8.44l.62,1.25Zm1.2,2.45-.63-1.25h-8.49l.62,1.25Zm1.2,2.4-.63-1.25h-8.54l.62,1.25Zm1.25,2.4-.63-1.25h-8.59l.62,1.25Zm1.19,2.45-.62-1.25h-8.64l.62,1.25Zm1.25,2.4-.62-1.25H475l.62,1.25Zm1.2,2.4-.62-1.25h-8.69l.62,1.25Zm.48,2.44v-1.24h-8.64l.63,1.24Zm0,2.4.05-1.24h-7.49l.63,1.24Zm0,2.4v-1.24h-6.28l.62,1.24Zm0,2.45v-1.25h-5.09l.63,1.25Zm1.68-35.18h-1.34A6.47,6.47,0,0,1,487,86.8,6.47,6.47,0,0,1,487.71,85.65Z" fill="#231f20"/>
    <path d="M493.85,103.17c0-14,7.88-20,16.61-20,5.72,0,8.26,3,9.65,3,1,0,1.2-.87,1.35-2.6h2v14.4h-2c-.77-8.3-4.85-12.52-9.6-12.52-4.57,0-6.34,6.28-6.34,17.28,0,10.7.1,18.77,6,18.77a8.43,8.43,0,0,0,1.58-.2V108.45a1,1,0,0,0-1-1.15l-2.5-.29v-1.78H527v1.83l-2.4.24a1,1,0,0,0-1,1.15v11.13a11.64,11.64,0,0,1,3.07,1.35l-.15,2.21a8.74,8.74,0,0,0-4.65-1.3c-3.51,0-7.49,1.78-12.1,1.78C499.85,123.62,493.85,115.41,493.85,103.17Zm9.65-1.78v-1.25H496a9.6,9.6,0,0,1-.1,1.25Zm0,2.45v-1.25h-7.63v1.25Zm0,2.45V105h-7.58c.05.43.05.82.09,1.25Zm.05-7.3c.05-.43.05-.86.1-1.25h-7.3c-.1.39-.14.82-.24,1.25Zm0,9.75c0-.44-.05-.87-.05-1.25h-7.39l.24,1.25Zm.15-12.2.14-1.25h-6.91c-.1.39-.24.82-.34,1.25Zm0,14.64c-.05-.43-.05-.86-.1-1.24h-7c.1.38.24.81.34,1.24Zm.19,2.4-.15-1.24h-6.43a9.25,9.25,0,0,0,.53,1.24ZM504,94.09c0-.43.15-.86.19-1.24h-6.28a8.11,8.11,0,0,0-.53,1.24Zm.29,21.94c0-.38-.14-.81-.19-1.25h-5.66a8.67,8.67,0,0,0,.76,1.25Zm.15-24.38c.09-.44.24-.82.33-1.25h-5.37a10,10,0,0,0-.82,1.25Zm.57,26.83a9.13,9.13,0,0,1-.38-1.25h-4.52a16.38,16.38,0,0,0,1.25,1.25Zm.1-29.28a12.81,12.81,0,0,1,.48-1.25h-3.84a18.38,18.38,0,0,0-1.4,1.25Zm.43,30.48h-2.64a15.8,15.8,0,0,0,3.7,1.63A11.36,11.36,0,0,1,505.52,119.68Zm.67-32.88c.29-.48.67-1,1-1.35a14.41,14.41,0,0,0-3.65,1.35Zm15.41,21.94v-.34a2.94,2.94,0,0,1,.14-.91H515a2.94,2.94,0,0,1,.14.91v.34Zm0,2.44v-1.24h-6.48v1.24Zm0,2.4v-1.24h-6.48v1.24Zm0,2.45v-1.25h-6.48V116Zm0,2.45v-1.25h-6.48v1.25Zm0,1.44v-.24h-6.48v1.2A31.16,31.16,0,0,1,521.6,119.92Zm0-32.4a1.88,1.88,0,0,1-1.11.33h-.14A10.57,10.57,0,0,1,521.65,90Z" fill="#231f20"/>
    <path d="M528.32,120.83h.81a3.36,3.36,0,0,0,3.27-2.35l11.66-35h4.66l11.52,35.61a2.36,2.36,0,0,0,2.31,1.73h.81v2H544.88v-2h1.82c1.11,0,1.44-.62,1.44-1.25a2,2,0,0,0-.09-.57l-2.31-7.59h-8.88l-2.06,6.63a4.25,4.25,0,0,0-.19,1c0,1.11.72,1.73,2.21,1.73h1.44v2h-9.94Zm5.76,0a2.82,2.82,0,0,1-.67-1.49,4.54,4.54,0,0,1-1.3,1.49Zm11-11.47-3.74-12.24-3.84,12.24ZM550,94.05l-.39-1.25H543.1l-.43,1.25Zm.77,2.4-.39-1.25h-7.54l.39,1.25ZM549.2,91.6l-.38-1.25h-4.9l-.43,1.25Zm2.35,7.29-.38-1.24h-7.59l.39,1.24Zm-3.12-9.74-.38-1.25h-3.31l-.44,1.25Zm3.94,12.19-.43-1.25h-7.59l.39,1.25Zm-4.75-14.59-.39-1.25H545.5l-.43,1.25Zm5.56,17-.43-1.25h-7.63l.38,1.25Zm.77,2.4-.43-1.25h-7.68l.38,1.25Zm.82,2.45-.43-1.25h-7.73l.38,1.25Zm.72,2.45-.38-1.25h-7.78l.38,1.25Zm.82,2.4-.39-1.25H548.1l.38,1.25Zm.76,2.45-.38-1.25h-7.87l.38,1.25Zm.82,2.44-.39-1.24h-7.92l.39,1.24Zm1,2.45c-.19-.33-.38-.77-.53-1.1l-.05-.15h-8.11a5,5,0,0,1-.29,1.25Z" fill="#231f20"/>
    <path d="M571.57,92.37v26.06c0,2,.38,2.4,2.4,2.4h1.44v2H565.33v-2h1.44c2,0,2.4-.33,2.45-2.4l.09-30.86c-.09-1.54-.57-1.83-2.4-1.83h-1.44v-2h15.17l6.19,23.71,6-23.71h14.79v2h-1.44c-2,0-2.4.39-2.4,2.4v30.29c0,2,.38,2.4,2.4,2.4h1.44v2H589.42v-2h1.45c2,0,2.4-.38,2.4-2.4V91.89l-8.26,31-5.38.05Zm-.63,28.51a3,3,0,0,1-.67-1.15,2.39,2.39,0,0,1-.67,1.15ZM579.44,87l-.34-1.25h-7.2l.34,1.25Zm.58,2.4-.29-1.25h-7.2l.33,1.25Zm.62,2.4-.29-1.25h-7.2l.34,1.25Zm.67,2.45L581,93h-7.16l.34,1.25Zm.63,2.4-.34-1.25h-7.15l.33,1.25Zm.62,2.45-.34-1.25h-7.15l.34,1.25Zm.67,2.4-.33-1.25h-7.16l.34,1.25Zm.58,2.4-.34-1.25h-7.1l.33,1.25Zm.62,2.45-.29-1.25H577l.34,1.25Zm.67,2.4-.33-1.25h-7.11l.34,1.25Zm.63,2.4-.34-1.25h-7.1l.33,1.25Zm-.34,2.44.29-1.24h-6.77l.34,1.24Zm-.62,2.4.33-1.24h-5.52l.34,1.24Zm-.67,2.4.33-1.24h-4.22l.33,1.24Zm-.68,2.45.34-1.25h-2.93l.34,1.25Zm18.77,0a4.59,4.59,0,0,1-.28-1.25h-6.68a4.57,4.57,0,0,1-.33,1.25ZM601.91,87a4.27,4.27,0,0,1,.28-1.25h-6.91V87Zm-.1,2.4V88.14h-6.53v1.25Zm0,2.4V90.54h-6.53v1.25Zm0,2.45V93h-6.53v1.25Zm0,2.4V95.39h-6.53v1.25Zm0,2.45V97.84h-6.53v1.25Zm0,2.4v-1.25h-6.53v1.25Zm0,2.4v-1.25h-6.53v1.25Zm0,2.45v-1.25h-6.53v1.25Zm0,2.4v-1.25h-6.53v1.25Zm0,2.4v-1.25h-6.53v1.25Zm0,2.44v-1.24h-6.53v1.24Zm0,2.4v-1.24h-6.53V116Zm0,2.4v-1.24h-6.53v1.24Z" fill="#231f20"/>
    <path d="M611.31,120.83h1.44c2,0,2.4-.38,2.4-2.4V88.14c0-2-.38-2.4-2.4-2.4h-1.44v-2h29.23V96.59h-2.16c0-7.06-5.32-10.85-10.94-10.94-.48,0-1.49,0-1.49.38v15.7c3.22,0,6-3.51,6-8.36h2.16v18.92H632c0-5.62-2.78-8.55-6-8.55l-.05,14.69c0,1.92.39,2.64,2.16,2.64,5.81,0,10.81-7.77,11.09-13.82h2.16l-.48,15.6H611.31ZM623.94,87V85.74h-7.16a4.26,4.26,0,0,1,.29,1.25Zm.28,33.84a4.59,4.59,0,0,1-.28-1.25h-6.87a4.18,4.18,0,0,1-.29,1.25Zm-.28-31.44V88.14h-6.77v1.25Zm0,2.45V90.59h-6.77v1.25Zm0,2.4V93h-6.77v1.25Zm0,2.4V95.39h-6.77v1.25Zm0,2.45V97.84h-6.77v1.25Zm0,2.4v-1.25h-6.77v1.25Zm0,2.4v-1.25h-6.77v1.25Zm0,2.45v-1.25h-6.77v1.25Zm0,2.4v-1.25h-6.77v1.25Zm-.05,2.44.05-1.24h-6.77v1.24Zm0,2.4v-1.24h-6.72v1.24Zm0,2.4v-1.24h-6.72V116Zm0,2.45v-1.25h-6.72v1.25Zm8.21-16.37V99.9a6.35,6.35,0,0,1-2.4,2.16Zm0,1.3h-2.4a6.52,6.52,0,0,1,2.4,2.06Zm6.77,17.47,0-1.25h-3.6c-.48.44-1,.87-1.44,1.25Zm-.34-34V85.74h-3.7a14.55,14.55,0,0,1,1.39,1.06Zm.38,31.73.05-1.25h-1.68a8.38,8.38,0,0,1-1,1.25Zm-.38-30.68h-1.3a13.33,13.33,0,0,1,1.3,1.88Zm.48,28.37,0-1.72a17.1,17.1,0,0,1-1,1.72Z" fill="#231f20"/>
  </g>
</svg>
